<?xml version="1.0" standalone="no"?>
<!DOCTYPE svg PUBLIC "-//W3C//DTD SVG 20010904//EN"
 "http://www.w3.org/TR/2001/REC-SVG-20010904/DTD/svg10.dtd">
<svg version="1.0" xmlns="http://www.w3.org/2000/svg"
 width="1920.000000pt" height="1920.000000pt" viewBox="0 0 1920.000000 1920.000000"
 preserveAspectRatio="xMidYMid meet">

<g transform="translate(0.000000,1920.000000) scale(0.100000,-0.100000)"
fill="#000000" stroke="none">
<path d="M14330 14911 c-288 -132 -673 -341 -1035 -559 -1321 -798 -2690
-1938 -4075 -3392 -107 -113 -198 -206 -202 -208 -3 -2 -35 18 -70 44 -123 90
-238 132 -388 140 -83 5 -131 -1 -393 -45 l-297 -51 -93 72 c-542 426 -1023
856 -1377 1233 -91 97 -190 195 -220 219 -132 103 -280 172 -429 200 -120 23
-771 23 -891 0 -239 -45 -465 -184 -607 -372 -71 -94 -132 -216 -170 -337
l-28 -90 0 -1195 c0 -1643 6 -2680 16 -2775 10 -92 48 -233 87 -320 57 -129
106 -199 222 -315 155 -155 287 -231 485 -281 96 -24 323 -33 1317 -49 701
-12 715 -13 816 -64 27 -14 69 -44 95 -68 25 -24 362 -461 749 -973 387 -511
759 -1003 827 -1092 139 -185 230 -274 330 -327 189 -99 420 -102 615 -7 179
88 313 252 363 444 24 94 24 257 0 347 -44 166 -166 350 -771 1160 -421 565
-1221 1616 -1270 1669 -47 50 -130 109 -202 143 -130 61 -172 66 -634 83 -234
9 -453 18 -487 21 l-63 6 0 964 c0 600 4 964 9 964 6 0 176 -128 378 -285 202
-156 398 -300 435 -320 87 -46 201 -75 297 -75 65 0 831 122 1008 160 261 57
474 271 530 533 14 70 13 211 -3 307 -5 33 0 43 62 120 468 583 1305 1456
2019 2106 905 824 1945 1596 2840 2109 94 54 207 120 253 147 94 57 90 58 148
-29 140 -211 247 -558 329 -1068 202 -1261 187 -3252 -36 -4485 -36 -202 -108
-500 -121 -500 -6 0 -7 40 -3 100 9 113 14 108 -78 84 -255 -66 -469 -309
-630 -714 -124 -312 -140 -597 -47 -852 130 -355 466 -639 802 -677 180 -21
360 17 576 120 l104 49 39 -20 c72 -37 157 -53 279 -53 109 1 264 24 284 43 4
4 -16 24 -45 42 -64 42 -135 116 -155 163 -28 68 -9 155 54 248 18 25 29 48
25 50 -12 7 -210 -84 -304 -139 -45 -27 -110 -75 -143 -108 l-60 -58 -191 5
c-207 5 -239 11 -347 69 -83 44 -154 117 -192 197 -28 60 -30 74 -29 161 1
121 25 203 142 495 129 322 161 453 161 664 0 98 -17 221 -32 236 -2 3 -44
-31 -94 -75 -49 -44 -92 -80 -95 -80 -4 0 4 37 17 83 267 915 360 2913 208
4437 -48 488 -149 1009 -247 1281 -66 181 -192 400 -230 398 -6 0 -68 -26
-137 -58z m94 -6231 c31 -30 27 -87 -8 -116 -37 -32 -71 -30 -107 5 -38 39
-38 74 1 113 26 25 36 29 63 24 18 -4 41 -15 51 -26z"/>
<path d="M14332 8658 c-28 -28 -7 -78 33 -78 27 0 45 18 45 45 0 27 -18 45
-45 45 -12 0 -26 -5 -33 -12z"/>
<path d="M5245 14939 c-114 -15 -213 -46 -330 -103 -136 -66 -208 -120 -316
-234 -345 -364 -383 -924 -91 -1337 389 -552 1182 -607 1647 -114 191 203 286
444 286 729 1 516 -354 943 -870 1049 -78 16 -245 21 -326 10z"/>
<path d="M13875 8213 c-82 -113 -161 -298 -196 -464 -18 -84 -23 -138 -23
-279 -1 -167 0 -179 28 -264 50 -153 144 -274 258 -332 69 -35 186 -44 268
-20 88 26 91 30 45 68 -228 186 -376 438 -415 707 -24 160 -2 378 55 559 13
39 21 72 19 72 -2 0 -19 -21 -39 -47z"/>
<path d="M14841 8047 c-53 -130 -113 -289 -109 -293 2 -1 29 10 61 26 120 60
212 60 282 -2 20 -17 37 -29 40 -27 2 2 -1 27 -6 54 -15 81 -66 172 -134 241
-97 96 -94 96 -134 1z"/>
<path d="M2240 6545 c-166 -41 -305 -155 -375 -307 -29 -63 -55 -173 -55 -233
0 -66 28 -176 62 -245 43 -88 160 -205 248 -248 134 -66 17 -63 2093 -60
l1882 3 66 26 c134 52 214 113 282 217 72 107 91 175 91 312 -1 132 -21 201
-88 303 -77 116 -221 213 -350 236 -41 8 -642 11 -1930 10 -1534 -1 -1881 -3
-1926 -14z"/>
<path d="M13095 5589 c-192 -24 -386 -109 -611 -267 -167 -116 -216 -139 -330
-154 -112 -15 -222 0 -313 43 -106 49 -187 37 -232 -34 -26 -41 -22 -125 8
-165 26 -35 129 -86 229 -113 65 -18 106 -22 229 -22 237 1 344 39 581 209
138 99 266 165 379 195 119 32 354 32 480 0 124 -32 234 -88 389 -198 235
-168 341 -206 576 -207 232 0 336 36 574 203 226 159 361 213 563 227 189 12
392 -32 537 -118 37 -22 118 -76 180 -119 215 -154 326 -192 561 -192 121 0
165 4 226 21 110 30 212 84 238 125 43 69 18 167 -51 203 -50 26 -97 22 -175
-14 -142 -65 -333 -67 -469 -3 -35 16 -125 73 -201 126 -293 206 -523 277
-843 262 -271 -14 -452 -81 -710 -263 -74 -53 -162 -109 -196 -125 -129 -62
-328 -62 -461 0 -34 16 -124 73 -200 126 -221 155 -395 229 -598 254 -103 13
-258 12 -360 0z"/>
<path d="M13125 4949 c-221 -26 -395 -97 -615 -252 -74 -52 -162 -108 -195
-125 -141 -70 -352 -69 -495 3 -119 60 -230 1 -230 -123 0 -61 33 -101 120
-144 121 -61 182 -73 365 -73 238 0 319 27 543 182 171 119 224 150 311 185
117 47 199 61 356 60 243 0 373 -48 632 -230 145 -102 216 -140 323 -174 66
-20 95 -23 240 -23 241 0 333 31 545 182 61 42 146 99 189 125 199 120 480
156 731 92 94 -24 228 -94 370 -194 231 -163 326 -199 540 -207 115 -4 157 -1
236 15 116 24 238 78 266 118 46 65 37 140 -22 193 -53 46 -92 49 -183 13 -99
-38 -165 -52 -256 -52 -157 0 -228 28 -429 169 -192 135 -295 186 -453 226
-211 54 -448 54 -663 -1 -125 -31 -284 -111 -436 -219 -198 -141 -282 -175
-430 -175 -159 0 -232 30 -450 184 -244 173 -433 239 -712 250 -65 3 -154 0
-198 -5z"/>
</g>
</svg>
