<svg width="96" height="96" xmlns="http://www.w3.org/2000/svg" xmlns:xlink="http://www.w3.org/1999/xlink" xml:space="preserve" overflow="hidden"><g transform="translate(-665 -23)"><path d="M727.4 44C727.4 47.866 724.266 51 720.4 51 716.534 51 713.4 47.866 713.4 44 713.4 40.134 716.534 37 720.4 37 724.266 37 727.4 40.134 727.4 44Z"/><path d="M738.2 109.7 728.4 81 728.4 56C728.4 54.3 727.1 53 725.4 53L713.4 53C712.9 53 712.3 53.1 711.9 53.4L703.9 58.2 694.6 48.9C693.4 47.7 691.5 47.7 690.4 48.9 689.2 50.1 689.2 52 690.4 53.1L701.4 64.1C702 64.7 702.7 65 703.5 65 704 65 704.6 64.9 705 64.6L712.5 60.1 712.5 81.1 702.7 109.8C702 111.9 703.1 114.2 705.2 114.9 705.6 115 706.1 115.1 706.5 115.1 708.2 115.1 709.7 114.1 710.3 112.4L720.5 82.5 730.7 112.4C731.3 114.1 732.8 115.1 734.5 115.1 734.9 115.1 735.4 115 735.8 114.9 737.8 114.1 738.9 111.8 738.2 109.7Z"/><path d="M690.6 58.8C690.3 58.8 690.1 58.7 689.9 58.5L687.9 56.5C687.5 56.1 687.5 55.5 687.9 55.1 688.3 54.7 688.9 54.7 689.3 55.1L691.3 57.1C691.7 57.5 691.7 58.1 691.3 58.5 691.1 58.7 690.9 58.8 690.6 58.8Z"/><path d="M719.4 30C719.4 28.3 718.1 27 716.4 27 715.6 27 714.8 27.3 714.3 27.9L706.3 35.9C701.3 40.9 700.2 44.3 696.5 48L698.4 49.9C702.4 45.9 704.8 45.9 710.6 40.1L718.6 32.1C719 31.6 719.4 30.8 719.4 30Z"/></g></svg>