<?xml version="1.0" encoding="UTF-8" standalone="no"?>
<svg
   width="96"
   height="96"
   xml:space="preserve"
   overflow="hidden"
   version="1.1"
   id="svg8"
   sodipodi:docname="basketball.svg"
   inkscape:version="1.4.2 (f4327f4, 2025-05-13)"
   xmlns:inkscape="http://www.inkscape.org/namespaces/inkscape"
   xmlns:sodipodi="http://sodipodi.sourceforge.net/DTD/sodipodi-0.dtd"
   xmlns="http://www.w3.org/2000/svg"
   xmlns:svg="http://www.w3.org/2000/svg"><defs
     id="defs8" /><sodipodi:namedview
     id="namedview8"
     pagecolor="#ffffff"
     bordercolor="#000000"
     borderopacity="0.25"
     inkscape:showpageshadow="2"
     inkscape:pageopacity="0.0"
     inkscape:pagecheckerboard="0"
     inkscape:deskcolor="#d1d1d1"
     inkscape:zoom="12.239583"
     inkscape:cx="47.959149"
     inkscape:cy="48"
     inkscape:window-width="2560"
     inkscape:window-height="1377"
     inkscape:window-x="-8"
     inkscape:window-y="-8"
     inkscape:window-maximized="1"
     inkscape:current-layer="g8" /><g
     transform="translate(-354 -289)"
     id="g8"><ellipse
       style="fill:#ffffff;stroke-width:1.06437"
       id="path9"
       ry="38.277447"
       rx="38.073189"
       cy="336.83658"
       cx="402.04083" /><path
       d="M391.3 323.5C397.5 316.6 400.3 307.7 399.8 299 391.4 299.5 383.2 302.7 376.5 308.7L391.3 323.5Z"
       id="path1" /><path
       d="M414.8 346.9 430.3 362.4C436.5 355.6 439.7 347.1 440 338.5 431 337.8 421.9 340.6 414.8 346.9Z"
       id="path2" /><path
       d="M402 334.2 427.4 308.8C420.7 302.7 412.3 299.5 403.9 299.1 404.4 308.8 401.2 318.7 394.2 326.4L402 334.2Z"
       id="path3" /><path
       d="M404.8 337 411.9 344.1C419.8 337 429.9 333.8 439.9 334.4 439.3 326.2 436.1 318.1 430.2 311.5L404.8 337Z"
       id="path4" /><path
       d="M411.9 349.8C405.6 356.9 402.8 366 403.5 375 412.1 374.7 420.6 371.4 427.4 365.3L411.9 349.8Z"
       id="path5" /><path
       d="M409.1 346.9 402 339.8 376.6 365.2C383.1 371.1 391.2 374.3 399.5 374.9 398.8 365 402 354.8 409.1 346.9Z"
       id="path6" /><path
       d="M373.7 311.6C367.7 318.2 364.5 326.5 364 334.9 372.7 335.4 381.5 332.5 388.5 326.4L373.7 311.6Z"
       id="path7" /><path
       d="M399.2 337 391.4 329.2C383.7 336.2 373.8 339.4 364.1 338.9 364.5 347.4 367.8 355.7 373.8 362.4L399.2 337Z"
       id="path8" /></g></svg>
