<svg width="96" height="96" xmlns="http://www.w3.org/2000/svg" xmlns:xlink="http://www.w3.org/1999/xlink" xml:space="preserve" overflow="hidden"><g transform="translate(-414 -300)"><path d="M487 316.2C487 320.618 483.418 324.2 479 324.2 474.582 324.2 471 320.618 471 316.2 471 311.782 474.582 308.2 479 308.2 483.418 308.2 487 311.782 487 316.2Z"/><path d="M498.7 364.4C497.9 363.6 496.7 363.6 495.9 364.4L490.3 370C488.7 371.6 486.2 371.6 484.6 370L481 366.4 481 331.2C481 330 480.3 328.9 479.2 328.4L467.2 323.4C466.8 323.2 466.4 323.2 466 323.2L450 323.2C448.3 323.2 447 324.5 447 326.2L447 332.4 443.4 328.8C442.6 328 441.4 328 440.6 328.8 439.8 329.6 439.8 330.8 440.6 331.6L447 338 447 342.2C447 343.9 448.3 345.2 450 345.2 451.1 345.2 452.1 344.6 452.6 343.6L453.5 344.5 447.4 359 430.4 367.8C429 368.5 428.3 369.9 428.3 371.4L426.6 368.3C426.3 367.8 425.7 367.6 425.2 367.9 424.7 368.2 424.5 368.8 424.8 369.3L430.9 380.8C431.1 381.1 431.4 381.3 431.7 381.3L434.7 381.5C434.7 381.5 434.7 381.5 434.8 381.5 435.3 381.5 435.8 381.1 435.8 380.6 435.8 380 435.4 379.6 434.9 379.5L432.5 379.3 430 374.7C430.7 375.1 431.4 375.4 432.2 375.4 432.8 375.4 433.4 375.3 434 375L452.3 365.5C453.1 365.1 453.8 364.4 454.2 363.5L459.6 350.7 462.7 353.8 451.3 381.3C450.6 382.9 451.1 384.6 452.3 385.7L449 385.7C449 385.7 449 385.7 449 385.7 448.4 385.7 448 386.1 448 386.7 448 387.3 448.4 387.7 449 387.7L462 387.7C462 387.7 462 387.7 462 387.7 462.3 387.7 462.7 387.5 462.8 387.2L464.4 384.7C464.7 384.2 464.5 383.6 464.1 383.3 463.6 383 463 383.2 462.7 383.6L461.4 385.7 457.6 385.7C458 385.3 458.3 384.9 458.6 384.3L468.7 359.8 475 366 475 369.2C475 370.9 476.3 372.2 478 372.2 478.9 372.2 479.7 371.8 480.2 371.2L481.8 372.8C483.4 374.4 485.4 375.1 487.5 375.1 489.5 375.1 491.6 374.3 493.2 372.8L498.8 367.2C499.5 366.5 499.5 365.2 498.7 364.4ZM453 338.4 453 329.2 459.9 329.2 455.2 340.5 453 338.4ZM470.4 355.9 475 345 475 360.4 470.4 355.9Z"/></g></svg>