<svg width="96" height="96" xmlns="http://www.w3.org/2000/svg" xmlns:xlink="http://www.w3.org/1999/xlink" xml:space="preserve" overflow="hidden"><g transform="translate(-299 -236)"><path d="M366 251.5C366 255.918 362.418 259.5 358 259.5 353.582 259.5 350 255.918 350 251.5 350 247.082 353.582 243.5 358 243.5 362.418 243.5 366 247.082 366 251.5Z"/><path d="M322 290.5C312.6 290.5 305 298.1 305 307.5 305 316.9 312.6 324.5 322 324.5 331.4 324.5 339 316.9 339 307.5 339 298.1 331.4 290.5 322 290.5ZM322 320.5C314.8 320.5 309 314.7 309 307.5 309 300.3 314.8 294.5 322 294.5 329.2 294.5 335 300.3 335 307.5 335 314.7 329.2 320.5 322 320.5Z"/><path d="M372 290.5C362.6 290.5 355 298.1 355 307.5 355 316.9 362.6 324.5 372 324.5 381.4 324.5 389 316.9 389 307.5 389 298.1 381.4 290.5 372 290.5ZM372 320.5C364.8 320.5 359 314.7 359 307.5 359 300.3 364.8 294.5 372 294.5 379.2 294.5 385 300.3 385 307.5 385 314.7 379.2 320.5 372 320.5Z"/><path d="M354.7 275.8C355.5 276.6 356.5 277 357.5 277L369 277C371.2 277 373 275.2 373 273 373 270.8 371.2 269 369 269L359.2 269C359.2 269 347.8 257.5 347.6 257.4 345.1 255.2 341.3 255.5 339.1 258L325.5 273.5C323.3 276 323.6 279.8 326 282 326.6 282.5 327.2 282.9 327.9 283.1L327.9 283.1 342.9 289.1 342.9 307.4C342.9 309.6 344.7 311.4 346.9 311.4 349.1 311.4 350.9 309.6 350.9 307.4L350.9 286.4C350.9 284.8 349.9 283.3 348.5 282.7L337.4 278 346.5 267.6 354.7 275.8Z"/></g></svg>