<?xml version="1.0" standalone="no"?>
<!DOCTYPE svg PUBLIC "-//W3C//DTD SVG 20010904//EN"
 "http://www.w3.org/TR/2001/REC-SVG-20010904/DTD/svg10.dtd">
<svg version="1.0" xmlns="http://www.w3.org/2000/svg"
 width="427.000000pt" height="423.000000pt" viewBox="0 0 427.000000 423.000000"
 preserveAspectRatio="xMidYMid meet">

<g transform="translate(0.000000,423.000000) scale(0.100000,-0.100000)"
fill="#000000" stroke="none">
<path d="M2413 3761 c-94 -35 -166 -103 -212 -200 -22 -48 -26 -70 -26 -146 0
-82 3 -97 32 -156 39 -79 102 -140 181 -177 77 -36 199 -37 284 -4 155 62 249
234 219 400 -23 124 -96 218 -209 270 -77 35 -194 41 -269 13z"/>
<path d="M1105 3236 c-46 -20 -64 -47 -162 -231 -50 -93 -126 -235 -168 -315
-82 -153 -97 -207 -75 -260 27 -66 106 -103 172 -81 30 10 47 6 178 -47 80
-32 144 -63 143 -68 -1 -5 -14 -38 -29 -74 -53 -129 -40 -256 35 -342 l40 -45
-103 -231 -104 -232 -264 -284 c-233 -249 -267 -290 -277 -330 -36 -143 102
-267 236 -211 44 19 52 26 562 510 70 67 78 80 177 278 57 114 107 207 110
207 8 0 281 -234 305 -260 8 -10 53 -168 99 -351 74 -296 87 -336 114 -367 55
-63 134 -79 212 -43 47 21 77 59 92 114 9 31 0 99 -53 421 -36 211 -70 395
-76 409 -10 21 -358 359 -437 423 l-26 21 26 44 c54 90 23 92 303 -19 138 -55
295 -117 350 -138 82 -32 108 -47 145 -87 51 -54 99 -71 155 -56 31 9 58 0
255 -76 236 -91 298 -106 383 -95 108 15 175 70 203 167 34 118 -23 235 -134
274 -63 22 -134 -42 -118 -107 4 -14 23 -41 43 -59 29 -27 35 -37 29 -58 -5
-20 -15 -28 -41 -33 -48 -9 -83 1 -314 91 l-200 78 -179 271 -179 271 -22 165
c-33 257 -51 315 -133 431 -51 74 -227 216 -329 266 -137 68 -181 73 -568 73
-266 -1 -353 -4 -376 -14z m417 -335 l26 -6 -64 -120 c-36 -66 -92 -172 -125
-235 -33 -63 -64 -118 -67 -122 -10 -10 -255 87 -260 102 -2 6 47 96 110 200
l113 189 120 -1 c66 0 132 -3 147 -7z m667 -553 c6 -29 13 -71 17 -93 9 -55
27 -87 101 -184 35 -45 63 -84 61 -86 -2 -2 -85 29 -186 68 -117 46 -181 77
-180 85 4 18 162 261 170 262 4 0 11 -24 17 -52z"/>
<path d="M3272 660 c-91 -55 -96 -172 -12 -244 39 -32 115 -36 162 -8 127 74
73 272 -74 272 -25 0 -56 -8 -76 -20z"/>
</g>
</svg>
