<?xml version="1.0" standalone="no"?>
<!DOCTYPE svg PUBLIC "-//W3C//DTD SVG 20010904//EN"
 "http://www.w3.org/TR/2001/REC-SVG-20010904/DTD/svg10.dtd">
<svg version="1.0" xmlns="http://www.w3.org/2000/svg"
 width="1000.000000pt" height="913.000000pt" viewBox="0 0 1000.000000 913.000000"
 preserveAspectRatio="xMidYMid meet">

<g transform="translate(0.000000,913.000000) scale(0.100000,-0.100000)"
fill="#000000" stroke="none">
<path d="M6361 7085 c-133 -24 -259 -83 -372 -173 -163 -129 -576 -634 -567
-694 l3 -23 1079 0 c980 0 1080 1 1089 16 8 13 -3 36 -51 105 -185 271 -487
596 -622 671 -178 99 -368 132 -559 98z"/>
<path d="M2098 6495 c-197 -54 -334 -268 -299 -468 16 -92 62 -177 128 -237
116 -106 173 -120 479 -120 l232 0 11 33 c12 35 50 76 88 96 15 7 141 11 403
11 332 0 386 -2 416 -16 38 -18 69 -56 79 -97 l7 -27 173 0 c155 0 175 2 196
19 l24 19 3 374 c3 368 2 375 -18 401 l-21 27 -927 -1 c-728 -1 -937 -4 -974
-14z"/>
<path d="M5301 6043 c-31 -39 -174 -324 -225 -449 -121 -297 -206 -628 -248
-969 -17 -143 -17 -650 0 -800 45 -391 137 -763 278 -1121 59 -152 208 -462
236 -491 l21 -23 1144 0 1143 0 21 21 c30 30 170 320 238 494 369 942 395
1890 76 2770 -73 202 -243 553 -282 583 -13 9 -269 12 -1199 12 l-1183 0 -20
-27z m1238 -690 c20 -17 21 -28 24 -253 l2 -235 254 -2 c172 -2 258 -6 267
-14 22 -18 17 -66 -8 -83 -19 -14 -62 -16 -270 -16 l-248 0 0 -280 0 -280 248
0 c275 0 292 -4 292 -60 0 -56 -17 -60 -292 -60 l-248 0 0 -280 0 -280 248 0
c208 0 251 -2 270 -16 25 -17 30 -65 8 -83 -9 -8 -95 -12 -267 -14 l-254 -2
-3 -237 c-2 -237 -2 -238 -26 -253 -27 -18 -69 -7 -80 20 -3 9 -6 120 -6 246
l0 230 -252 -2 c-249 -1 -253 -1 -270 21 -23 29 -23 45 2 70 19 19 33 20 270
20 l250 0 0 280 0 280 -244 0 c-231 0 -245 1 -270 21 -33 26 -33 52 0 78 25
20 39 21 270 21 l244 0 0 280 0 280 -250 0 c-237 0 -251 1 -270 20 -25 25 -25
41 -2 70 17 22 21 22 270 21 l252 -2 0 234 c0 238 3 257 40 270 24 9 27 8 49
-10z"/>
<path d="M1800 5685 c-9 -11 -11 -72 -8 -237 4 -201 6 -229 26 -279 51 -130
146 -221 269 -259 57 -17 93 -20 285 -20 l219 0 24 25 25 24 0 311 0 310 -252
0 c-267 0 -312 6 -404 51 -25 12 -66 37 -90 55 -48 37 -75 42 -94 19z"/>
<path d="M2766 5684 c-14 -14 -16 -69 -16 -460 0 -288 4 -452 10 -465 10 -18
25 -19 378 -19 273 0 371 3 380 12 9 9 12 127 12 470 0 442 -1 458 -19 468
-13 6 -149 10 -375 10 -309 0 -357 -2 -370 -16z"/>
<path d="M3647 5553 c-4 -3 -7 -139 -7 -300 0 -308 4 -341 45 -357 9 -3 245
-6 524 -6 432 0 510 2 528 15 15 10 26 37 38 92 22 103 78 310 110 402 14 41
25 81 25 89 0 7 -13 27 -29 43 l-29 29 -600 0 c-329 0 -602 -3 -605 -7z"/>
<path d="M3587 4665 l-27 -26 2 -1337 3 -1337 30 0 c21 0 127 59 367 204 271
164 339 210 347 232 8 23 -24 144 -190 716 -110 378 -256 884 -325 1123 -69
239 -128 438 -130 442 -10 16 -50 7 -77 -17z"/>
<path d="M2890 4623 c-8 -3 -23 -12 -32 -21 -17 -14 -18 -106 -18 -1663 l0
-1648 26 -20 c15 -12 34 -21 44 -21 25 0 502 197 520 215 13 14 15 182 18
1561 l2 1545 -29 30 -29 29 -244 -1 c-134 0 -250 -3 -258 -6z"/>
<path d="M5457 2063 c-18 -17 0 -54 85 -181 152 -224 331 -441 437 -529 82
-67 218 -137 318 -165 61 -17 107 -21 213 -21 118 0 146 3 223 27 105 31 171
63 252 121 127 91 314 309 493 573 79 117 94 146 86 160 -10 16 -82 17 -1056
20 -574 1 -1048 -1 -1051 -5z"/>
</g>
</svg>
