<?xml version="1.0" encoding="UTF-8" standalone="no"?>
<svg
   width="96"
   height="96"
   xml:space="preserve"
   overflow="hidden"
   version="1.1"
   id="svg2"
   sodipodi:docname="fußball.svg"
   inkscape:version="1.4.2 (f4327f4, 2025-05-13)"
   xmlns:inkscape="http://www.inkscape.org/namespaces/inkscape"
   xmlns:sodipodi="http://sodipodi.sourceforge.net/DTD/sodipodi-0.dtd"
   xmlns="http://www.w3.org/2000/svg"
   xmlns:svg="http://www.w3.org/2000/svg"><defs
     id="defs2" /><sodipodi:namedview
     id="namedview2"
     pagecolor="#ffffff"
     bordercolor="#000000"
     borderopacity="0.25"
     inkscape:showpageshadow="2"
     inkscape:pageopacity="0.0"
     inkscape:pagecheckerboard="0"
     inkscape:deskcolor="#d1d1d1"
     inkscape:zoom="12.239583"
     inkscape:cx="47.959149"
     inkscape:cy="48"
     inkscape:window-width="2560"
     inkscape:window-height="1377"
     inkscape:window-x="-8"
     inkscape:window-y="-8"
     inkscape:window-maximized="1"
     inkscape:current-layer="g2" /><g
     transform="translate(-270.02297,-270.51321)"
     id="g2"
     style="display:inline"><ellipse
       style="display:inline;fill:#ffffff;opacity:1;fill-opacity:1"
       id="path3"
       cx="45.753193"
       cy="44.078297"
       rx="35.540424"
       ry="35.172768"
       transform="translate(270.02297,270.51321)" /><path
       d="m 315,277 c -21,0 -38,17 -38,38 0,21 17,38 38,38 21,0 38,-17 38,-38 0,-21 -17,-38 -38,-38 z m -9.1,70.7 2.6,-1.6 -7.6,-11.7 -13.5,-3.6 -0.8,3 c -3.3,-5 -5.4,-11 -5.6,-17.4 l 2.4,2 8.8,-10.8 -0.7,-13.9 -3,0.2 c 3.8,-4.8 8.9,-8.6 14.8,-10.7 l -1.3,2.8 13,5 13,-5 -1.1,-2.9 c 5.9,2.2 10.9,5.9 14.8,10.7 l -3,-0.2 -0.7,13.9 8.8,10.8 2.4,-2 c -0.3,6.4 -2.3,12.3 -5.6,17.4 l -0.8,-3 -13.5,3.6 -7.6,11.7 2.6,1.6 c -2.9,0.8 -6,1.3 -9.1,1.3 -3.1,0 -6.4,-0.3 -9.3,-1.2 z"
       id="path1" /><path
       d="m 328,313 -13,-10 -13,10 5,15 h 8 8 z"
       id="path2" /></g></svg>
