<svg width="96" height="96" xmlns="http://www.w3.org/2000/svg" xmlns:xlink="http://www.w3.org/1999/xlink" xml:space="preserve" overflow="hidden"><g transform="translate(-684 -177)"><path d="M755.9 208.3C755.7 207.6 755.3 207 754.7 206.6L754.7 206.6 715.6 181 712.3 186C712.1 186.3 712 186.7 712 187.1 712 187.4 712.1 187.8 712.3 188.1 713.5 189.8 715 189.1 715.6 188.1L717.8 184.9 750.8 206.4 724.4 211.1C724.4 211.1 724.4 211.1 724.4 211.1 724.4 211.1 724.3 211.1 724.3 211.1 722.2 211.6 720.9 213.8 721.4 216L726.4 235.8 708.7 262.6C707.5 264.4 707.8 266.9 709.5 268.1 710.2 268.6 711.1 268.9 711.9 268.9 713.2 268.9 714.5 268.3 715.2 267.1L734 238.7 734.9 242.2 731.9 264.4C731.6 266.6 733.1 268.6 735.3 268.9 735.5 268.9 735.7 268.9 735.8 268.9 737.8 268.9 739.5 267.4 739.8 265.4L742.9 242.4C743 241.9 742.9 241.4 742.8 240.9L736.3 214.9 753.3 211.9C755 211.7 756.3 210 755.9 208.3Z"/><path d="M730 201C730 204.866 726.866 208 723 208 719.134 208 716 204.866 716 201 716 197.134 719.134 194 723 194 726.866 194 730 197.134 730 201Z"/></g></svg>