<?xml version="1.0" standalone="no"?>
<!DOCTYPE svg PUBLIC "-//W3C//DTD SVG 20010904//EN"
 "http://www.w3.org/TR/2001/REC-SVG-20010904/DTD/svg10.dtd">
<svg version="1.0" xmlns="http://www.w3.org/2000/svg"
 width="512.000000pt" height="512.000000pt" viewBox="0 0 512.000000 512.000000"
 preserveAspectRatio="xMidYMid meet">

<g transform="translate(0.000000,512.000000) scale(0.100000,-0.100000)"
fill="#000000" stroke="none">
<path d="M1301 4989 c-63 -12 -127 -54 -166 -107 -42 -59 -59 -116 -53 -186
l4 -54 -53 -4 c-105 -9 -179 -91 -176 -198 4 -167 100 -545 178 -700 130 -259
363 -392 712 -407 l132 -6 10 -51 c63 -311 101 -598 108 -816 l6 -165 -37
-138 c-46 -176 -101 -345 -136 -423 l-27 -61 -169 -56 c-93 -30 -243 -76 -334
-102 -91 -25 -187 -52 -215 -60 -107 -31 -175 -114 -175 -215 1 -111 107 -220
215 -220 54 0 546 140 723 206 223 84 280 130 358 290 40 82 141 369 159 453
11 52 19 27 54 -169 44 -250 61 -372 61 -434 0 -95 -93 -328 -292 -736 -99
-202 -110 -231 -111 -280 -1 -101 58 -176 159 -206 94 -27 184 8 242 92 34 51
205 404 280 580 126 295 169 458 157 594 -13 146 -78 549 -114 712 -6 25 -2
77 12 165 17 106 20 179 21 428 1 314 -7 408 -53 600 -11 44 -19 81 -17 82 1
1 87 20 191 43 210 45 727 172 1018 248 204 54 241 73 272 139 53 110 -6 231
-129 264 -37 10 -65 5 -311 -60 -511 -134 -963 -240 -1170 -275 -110 -19 -639
-56 -790 -56 -240 1 -384 54 -456 169 -50 78 -126 348 -154 543 l-6 47 35 -14
c56 -24 162 -19 221 9 215 101 211 421 -5 514 -57 25 -122 33 -179 21z"/>
<path d="M2120 4724 c-235 -63 -374 -319 -300 -555 68 -221 301 -352 523 -294
83 22 133 50 199 113 103 98 152 242 129 380 -44 260 -298 424 -551 356z"/>
</g>
</svg>
