<svg width="96" height="96" xmlns="http://www.w3.org/2000/svg" xmlns:xlink="http://www.w3.org/1999/xlink" xml:space="preserve" overflow="hidden"><g transform="translate(-588 -377)"><path d="M619.53 443.65 617.89 456.224C617.461 459.51 619.778 462.521 623.064 462.95 623.321 462.983 623.58 463 623.839 463L634.006 463 638.006 459 638.006 458.5 633.006 458.5C632.178 458.5 631.506 457.828 631.506 457 631.506 456.172 632.178 455.5 633.006 455.5L638.006 455.5 638.006 452.5 633.006 452.5C632.178 452.5 631.506 451.828 631.506 451 631.506 450.172 632.178 449.5 633.006 449.5L638.006 449.5 638.006 446 630.344 446C626.613 445.999 622.925 445.198 619.53 443.65Z"/><path d="M659.4 442.991C656.235 444.956 652.584 445.999 648.858 446L641.006 446 641.006 449.5 646.006 449.5C646.834 449.5 647.506 450.172 647.506 451 647.506 451.828 646.834 452.5 646.006 452.5L641.006 452.5 641.006 455.5 646.006 455.5C646.834 455.5 647.506 456.172 647.506 457 647.506 457.828 646.834 458.5 646.006 458.5L641.006 458.5 641.006 459 645.006 463 655.173 463C658.487 463 661.173 460.313 661.172 456.999 661.172 456.74 661.156 456.481 661.122 456.224Z"/><path d="M650 387.693 627 387.693C618.716 387.693 612 394.409 612 402.693L612 403.271C612.821 403.092 613.659 403.001 614.5 403L628.214 403C634.718 402.993 639.997 408.26 640.004 414.764 640.006 416.669 639.546 418.547 638.663 420.235L650 420.235C658.284 420.235 665 413.519 665 405.235L665 402.693C665 394.409 658.284 387.693 650 387.693Z"/><path d="M650 424.235 635.249 424.235C633.221 425.76 630.752 426.586 628.214 426.587L620.376 426.587C619.271 426.587 618.376 425.692 618.376 424.587 618.376 423.482 619.271 422.587 620.376 422.587L628.214 422.587C632.518 422.538 635.968 419.009 635.919 414.705 635.871 410.47 632.449 407.048 628.214 407L614.5 407C613.322 406.996 612.159 407.263 611.1 407.778 608.512 409.136 606.951 411.875 607.1 414.793L607.1 419.03C607.304 421.454 607.908 423.827 608.886 426.054L610.061 428.739C613.588 436.795 621.549 442 630.344 442L648.858 442C657.774 441.998 665 434.77 665 425.854L665 416.854C661.413 421.505 655.873 424.231 650 424.235Z"/></g></svg>