<?xml version="1.0" encoding="UTF-8" standalone="no"?>
<svg
   width="96"
   height="96"
   xml:space="preserve"
   overflow="hidden"
   version="1.1"
   id="svg3"
   sodipodi:docname="kegeln.svg"
   inkscape:version="1.4.2 (f4327f4, 2025-05-13)"
   xmlns:inkscape="http://www.inkscape.org/namespaces/inkscape"
   xmlns:sodipodi="http://sodipodi.sourceforge.net/DTD/sodipodi-0.dtd"
   xmlns="http://www.w3.org/2000/svg"
   xmlns:svg="http://www.w3.org/2000/svg"><defs
     id="defs3" /><sodipodi:namedview
     id="namedview3"
     pagecolor="#ffffff"
     bordercolor="#000000"
     borderopacity="0.25"
     inkscape:showpageshadow="2"
     inkscape:pageopacity="0.0"
     inkscape:pagecheckerboard="0"
     inkscape:deskcolor="#d1d1d1"
     inkscape:zoom="6.1197917"
     inkscape:cx="55.884255"
     inkscape:cy="46.978723"
     inkscape:window-width="1920"
     inkscape:window-height="1017"
     inkscape:window-x="2552"
     inkscape:window-y="210"
     inkscape:window-maximized="1"
     inkscape:current-layer="g3" /><g
     transform="translate(-411 -400)"
     id="g3"><rect
       style="fill:#ffffff;stroke-width:0.928449"
       id="rect3"
       width="77.61702"
       height="88.565102"
       x="9.1506386"
       y="4.4119148"
       ry="0"
       transform="translate(411,400)" /><path
       d="M492.952 439.985C491.445 436.485 490.143 433.465 490.143 430.701 490.143 427.947 490.518 425.206 491.258 422.554 491.836 420.536 492.153 418.453 492.2 416.354 492.2 408.553 487.09 405 482.343 405L481.657 405C476.91 405 471.8 408.553 471.8 416.354 471.847 418.453 472.164 420.536 472.742 422.554 473.482 425.206 473.857 427.947 473.857 430.7 473.857 433.259 472.738 436.045 471.376 439.221 471.217 440.374 471.139 441.536 471.143 442.7 471.143 444.638 472.343 447.436 473.624 450.4 474.376 447.643 475.357 444.954 476.559 442.361L477.021 441.283 486.979 441.283 487.441 442.361C489.191 446.42 491 450.621 491 455.25 491 464.092 486.6 471.432 485.586 473 484.633 473.658 483.501 474.007 482.343 474L481.657 474C480.502 474.007 479.372 473.66 478.419 473.008 478.26 472.761 478.011 472.357 477.719 471.841 477.43 474.163 476.95 476.458 476.283 478.701 477.945 479.557 479.788 480.003 481.657 480L482.343 480C485.117 480.025 487.805 479.036 489.9 477.218L490.111 477.018 490.28 476.78C494.501 470.379 496.831 462.916 497 455.25 497 449.383 494.849 444.39 492.952 439.985ZM479.211 435.285C479.491 434.251 479.684 433.195 479.788 432.128L484.212 432.128C484.316 433.195 484.509 434.251 484.789 435.285ZM485.434 421.117C485.001 422.766 484.667 424.439 484.434 426.128L479.567 426.128C479.334 424.439 479 422.766 478.567 421.117 478.11 419.57 477.852 417.97 477.801 416.358 477.801 412.958 479.207 411.004 481.658 411.004L482.344 411.004C484.795 411.004 486.201 412.956 486.201 416.358 486.149 417.969 485.891 419.567 485.434 421.113Z"
       id="path1" /><path
       d="M440.286 471.841C439.986 472.353 439.744 472.755 439.586 473 438.633 473.658 437.501 474.007 436.343 474L435.658 474C434.503 474.007 433.373 473.661 432.42 473.008 431.41 471.443 427 464.1 427 455.25 427 450.621 428.809 446.421 430.559 442.359L431.021 441.281 440.979 441.281C441.132 441.639 441.285 441.997 441.441 442.359 442.642 444.952 443.624 447.642 444.376 450.399 445.652 447.437 446.857 444.639 446.857 442.699 446.861 441.536 446.783 440.374 446.624 439.222 445.262 436.045 444.143 433.259 444.143 430.699 444.143 427.945 444.517 425.204 445.257 422.552 445.836 420.534 446.153 418.451 446.2 416.352 446.2 408.553 441.09 405 436.342 405L435.657 405C430.909 405 425.8 408.553 425.8 416.354 425.847 418.453 426.164 420.536 426.742 422.554 427.482 425.206 427.857 427.947 427.857 430.7 427.857 433.464 426.557 436.485 425.048 439.984 423.15 444.39 421 449.383 421 455.25 421.171 462.916 423.501 470.378 427.723 476.779L427.892 477.017 428.104 477.217C430.198 479.035 432.884 480.025 435.657 480L436.342 480C438.214 480.004 440.059 479.558 441.722 478.7 441.055 476.457 440.575 474.163 440.286 471.841ZM433.211 435.281C433.491 434.247 433.684 433.191 433.788 432.124L438.212 432.124C438.316 433.191 438.508 434.247 438.788 435.281ZM435.657 411 436.342 411C438.794 411 440.2 412.952 440.2 416.354 440.148 417.967 439.891 419.566 439.433 421.113 439 422.762 438.666 424.435 438.433 426.124L433.567 426.124C433.334 424.435 433 422.762 432.567 421.113 432.11 419.566 431.852 417.966 431.801 416.354 431.8 412.952 433.206 411 435.657 411Z"
       id="path2" /><path
       d="M469.952 451.985C468.445 448.485 467.143 445.465 467.143 442.701 467.143 439.947 467.518 437.206 468.258 434.554 468.836 432.536 469.153 430.453 469.2 428.354 469.2 420.553 464.09 417 459.343 417L458.657 417C453.91 417 448.8 420.553 448.8 428.354 448.847 430.453 449.164 432.536 449.742 434.554 450.482 437.206 450.857 439.947 450.857 442.7 450.857 445.464 449.557 448.486 448.048 451.984 446.151 456.39 444 461.383 444 467.25 444.171 474.916 446.501 482.378 450.724 488.779L450.893 489.017 451.104 489.217C453.198 491.034 455.884 492.024 458.657 492L459.343 492C462.117 492.025 464.805 491.036 466.9 489.218L467.111 489.018 467.28 488.78C471.501 482.379 473.831 474.916 474 467.25 474 461.383 471.849 456.39 469.952 451.985ZM456.788 444.124 461.212 444.124C461.316 445.191 461.509 446.247 461.789 447.281L456.211 447.281C456.491 446.247 456.684 445.191 456.788 444.124ZM458.657 423 459.343 423C461.794 423 463.2 424.952 463.2 428.354 463.149 429.966 462.891 431.566 462.434 433.113 462.001 434.762 461.667 436.435 461.434 438.124L456.567 438.124C456.334 436.435 456 434.762 455.567 433.113 455.11 431.566 454.852 429.966 454.801 428.354 454.8 424.952 456.206 423 458.657 423ZM462.586 485C461.633 485.658 460.501 486.007 459.343 486L458.657 486C457.502 486.007 456.372 485.66 455.419 485.008 454.41 483.443 450 476.1 450 467.25 450 462.621 451.809 458.42 453.559 454.359 453.714 453.997 453.868 453.639 454.021 453.281L463.979 453.281C464.132 453.639 464.286 453.997 464.441 454.359 466.191 458.42 468 462.621 468 467.25 468 476.092 463.6 483.432 462.586 485Z"
       id="path3" /></g></svg>
