<svg width="96" height="96" xmlns="http://www.w3.org/2000/svg" xmlns:xlink="http://www.w3.org/1999/xlink" xml:space="preserve" overflow="hidden"><g transform="translate(-483 -423)"><path d="M567.22 435 566.78 435C565.773 435.027 564.978 435.863 565 436.87L565 443.13C564.978 444.137 565.773 444.973 566.78 445L567.22 445C568.227 444.973 569.022 444.137 569 443.13L569 436.87C569.022 435.863 568.227 435.027 567.22 435Z"/><path d="M495.22 435 494.78 435C493.773 435.027 492.978 435.863 493 436.87L493 443.13C492.978 444.137 493.773 444.973 494.78 445L495.22 445C496.227 444.973 497.022 444.137 497 443.13L497 436.87C497.022 435.863 496.227 435.027 495.22 435Z"/><path d="M570 438 570 442C571.105 442 572 441.105 572 440 572 438.895 571.105 438 570 438Z"/><path d="M492 442 492 438C490.895 438 490 438.895 490 440 490 441.105 490.895 442 492 442Z"/><path d="M562.22 432 561.78 432C560.71 432.116 559.924 433.057 560 434.13L560 438 502 438 502 434.13C502.076 433.057 501.29 432.116 500.22 432L499.78 432C498.71 432.116 497.924 433.057 498 434.13L498 445.87C497.924 446.943 498.71 447.884 499.78 448L500.22 448C501.29 447.884 502.076 446.943 502 445.87L502 442 507 442 507 457C507.005 458.424 507.767 459.738 509 460.45L523 468.7 523 478.47 508.83 487.64C507.689 488.377 507 489.642 507 491L507 510 515 510 515 493.18 523 488 539 488 547 493.18 547 510 555 510 555 491C555 489.642 554.311 488.377 553.17 487.64L539 478.47 539 468.7 553 460.45C554.233 459.738 554.995 458.424 555 457L555 442 560 442 560 445.87C559.924 446.943 560.71 447.884 561.78 448L562.22 448C563.29 447.884 564.076 446.943 564 445.87L564 434.13C564.076 433.057 563.29 432.116 562.22 432ZM547 454.71 534.61 462 527.39 462 515 454.71 515 442 547 442Z"/><path d="M539 451C539 455.418 535.418 459 531 459 526.582 459 523 455.418 523 451 523 446.582 526.582 443 531 443 535.418 443 539 446.582 539 451Z"/></g></svg>