<?xml version="1.0" standalone="no"?>
<!DOCTYPE svg PUBLIC "-//W3C//DTD SVG 20010904//EN"
 "http://www.w3.org/TR/2001/REC-SVG-20010904/DTD/svg10.dtd">
<svg version="1.0" xmlns="http://www.w3.org/2000/svg"
 width="1529.000000pt" height="1466.000000pt" viewBox="0 0 1529.000000 1466.000000"
 preserveAspectRatio="xMidYMid meet">

<g transform="translate(0.000000,1466.000000) scale(0.100000,-0.100000)"
fill="#000000" stroke="none">
<path d="M7070 13685 c-26 -14 -238 -208 -515 -471 -258 -245 -615 -584 -793
-753 l-323 -306 -79 -21 c-480 -131 -1011 -439 -1540 -893 -378 -324 -798
-764 -1120 -1174 -41 -53 -80 -96 -85 -96 -6 -1 -26 -9 -45 -19 -21 -11 -88
-26 -166 -36 -366 -48 -624 -166 -844 -386 -114 -113 -178 -201 -249 -340
-113 -220 -156 -397 -156 -635 1 -264 62 -483 195 -700 86 -141 117 -175 380
-430 107 -104 346 -335 530 -514 184 -179 479 -465 655 -636 176 -170 406
-393 510 -495 105 -103 350 -341 545 -530 586 -568 858 -832 1210 -1174 102
-99 250 -243 330 -321 80 -77 231 -223 335 -325 772 -751 998 -969 1120 -1077
458 -404 994 -753 1565 -1018 l85 -40 -3361 -5 -3361 -5 -48 -30 c-202 -125
-164 -422 61 -484 53 -15 12712 -16 12766 -1 71 20 130 70 166 140 30 57 33
72 30 125 -6 97 -53 173 -138 223 -43 26 -53 27 -202 30 -87 2 -158 5 -158 8
0 2 9 25 19 52 77 195 65 484 -28 679 -49 102 -85 156 -160 236 l-58 62 -22
115 c-64 330 -177 607 -357 877 -104 156 -182 249 -325 389 -166 161 -355 297
-554 397 -38 20 -185 87 -326 151 -546 245 -1090 510 -1213 590 -337 223 -580
532 -711 906 -66 188 -65 185 -205 1335 -22 182 -59 479 -81 660 -184 1511
-167 1403 -233 1532 l-26 52 307 458 c168 252 466 696 661 988 195 291 363
548 373 570 21 46 24 130 7 187 -15 50 -79 123 -131 150 -86 44 -205 32 -284
-28 -20 -15 -154 -206 -346 -493 -171 -257 -472 -707 -667 -999 l-355 -532
-85 6 c-87 5 -140 -2 -340 -45 -135 -30 -461 -68 -690 -82 -307 -18 -879 -15
-1025 5 -509 70 -919 332 -1207 773 -72 110 -169 299 -222 430 -121 302 -214
680 -236 962 l-10 124 123 116 c67 64 262 249 432 411 171 161 393 373 495
470 102 97 258 246 348 331 184 174 212 215 212 309 0 78 -23 139 -73 190 -57
57 -112 80 -195 80 -51 -1 -78 -7 -112 -25z m-1730 -2212 c40 -302 143 -687
259 -966 87 -210 259 -511 391 -682 283 -365 657 -628 1077 -756 243 -74 439
-100 778 -104 625 -6 1190 37 1560 120 114 26 119 26 162 10 24 -9 54 -31 68
-50 24 -30 29 -61 80 -483 30 -249 55 -463 55 -476 0 -29 -8 -32 -180 -65
-252 -49 -429 -64 -740 -65 -287 0 -383 6 -625 40 -506 71 -1098 264 -1505
489 -191 106 -195 107 -262 108 -76 0 -129 -21 -181 -71 -70 -67 -79 -97 -89
-287 -14 -271 -52 -494 -123 -710 -39 -119 -166 -368 -237 -466 -79 -107 -107
-143 -111 -138 -2 2 -59 72 -128 154 -68 83 -142 172 -164 199 -22 27 -73 90
-114 140 -40 50 -261 325 -491 611 -460 574 -617 765 -818 993 -282 321 -547
575 -744 715 -49 34 -88 64 -88 67 0 20 353 417 547 616 458 467 896 807 1318
1023 120 61 254 119 276 120 14 1 19 -16 29 -86z m-2510 -2094 c130 -69 351
-258 558 -477 265 -279 420 -464 1028 -1222 582 -726 573 -715 823 -1015 221
-266 583 -686 651 -755 30 -30 174 -186 245 -264 123 -136 373 -392 595 -610
1406 -1386 2909 -2298 4495 -2727 123 -33 489 -118 530 -123 22 -2 47 -7 55
-10 8 -3 29 -8 45 -10 17 -2 66 -11 110 -20 358 -70 970 -126 1388 -126 112 0
230 -5 263 -11 111 -20 209 -96 264 -205 36 -72 40 -193 9 -275 -30 -83 -102
-160 -187 -201 l-67 -33 -877 -3 -878 -3 -1 33 c-4 274 -4 272 -28 326 -90
201 -369 202 -482 2 -10 -17 -16 -75 -19 -190 l-5 -165 -230 1 c-520 2 -1024
74 -1545 220 -196 55 -532 175 -538 192 -1 5 20 29 48 52 155 130 140 354 -30
440 -88 44 -162 50 -231 17 -30 -14 -68 -38 -84 -54 -123 -115 -235 -213 -245
-213 -27 0 -394 215 -575 338 -158 107 -360 260 -509 386 -118 100 -200 176
-405 372 l-74 72 95 45 c128 62 179 130 180 241 1 77 -18 128 -63 180 -61 69
-108 91 -199 90 -71 0 -84 -4 -250 -77 l-175 -76 -65 62 c-126 121 -583 564
-924 897 -99 96 -187 182 -196 190 -10 8 -79 76 -154 150 -126 124 -136 136
-119 148 10 8 60 40 111 73 105 67 144 116 162 206 26 123 -44 246 -168 293
-105 40 -157 25 -361 -104 -85 -53 -158 -95 -162 -94 -7 3 -490 471 -802 778
l-139 136 143 130 c96 87 150 144 166 174 89 175 -36 382 -232 384 -88 1 -146
-33 -315 -187 -103 -94 -145 -125 -156 -119 -8 4 -87 80 -177 168 -89 87 -243
238 -342 334 -1004 976 -931 901 -992 1005 -67 114 -113 282 -113 410 0 253
136 522 341 672 131 97 239 133 510 172 209 30 206 30 299 -20z m4146 -1600
c485 -194 996 -311 1523 -350 182 -13 619 -7 786 11 139 15 353 48 459 71 49
11 91 18 93 15 5 -5 11 -48 63 -481 23 -187 50 -410 61 -495 11 -85 25 -195
30 -243 45 -428 107 -689 224 -935 25 -52 45 -100 45 -106 0 -6 -42 -36 -93
-66 -331 -198 -636 -506 -835 -843 -88 -148 -134 -248 -204 -434 -17 -46 -35
-83 -41 -83 -13 0 -374 240 -527 350 -791 569 -1544 1260 -2328 2137 l-163
182 82 98 c271 327 447 721 524 1173 8 52 18 100 20 107 3 8 27 1 78 -22 41
-19 132 -57 203 -86z m3934 -3276 c201 -152 395 -254 1175 -618 99 -46 368
-166 415 -186 75 -30 248 -123 319 -171 173 -115 354 -291 473 -458 76 -107
196 -337 233 -449 l25 -74 -298 6 c-309 7 -538 23 -802 58 -85 12 -171 22
-190 25 -19 2 -96 14 -170 28 -818 149 -1517 383 -2250 751 -230 115 -270 137
-270 147 0 4 18 62 40 130 151 458 457 837 875 1081 l79 46 125 -122 c69 -67
169 -154 221 -194z"/>
<path d="M673 6071 c-48 -12 -119 -58 -147 -94 -40 -52 -56 -101 -56 -170 0
-109 55 -192 160 -241 45 -21 52 -21 1015 -21 l970 0 52 24 c59 26 117 84 141
140 9 21 15 64 15 103 0 105 -50 184 -148 236 l-50 27 -960 2 c-528 0 -974 -2
-992 -6z"/>
<path d="M1702 4411 c-56 -22 -119 -82 -143 -135 -25 -56 -25 -166 0 -223 28
-61 94 -120 154 -138 44 -13 184 -15 1003 -15 937 0 954 0 1008 21 39 14 68
35 99 69 117 130 79 328 -78 413 l-40 22 -980 2 c-916 2 -983 1 -1023 -16z"/>
<path d="M3175 2781 c-247 -6 -252 -7 -333 -68 -82 -61 -111 -208 -61 -308 31
-62 104 -119 173 -136 39 -10 280 -13 1001 -13 944 -1 950 -1 995 20 66 31
106 68 136 129 23 48 26 64 22 128 -3 61 -9 83 -33 123 -37 59 -107 108 -175
123 -53 11 -1270 12 -1725 2z"/>
</g>
</svg>
