<?xml version="1.0" standalone="no"?>
<!DOCTYPE svg PUBLIC "-//W3C//DTD SVG 20010904//EN"
 "http://www.w3.org/TR/2001/REC-SVG-20010904/DTD/svg10.dtd">
<svg version="1.0" xmlns="http://www.w3.org/2000/svg"
 width="512.000000pt" height="512.000000pt" viewBox="0 0 512.000000 512.000000"
 preserveAspectRatio="xMidYMid meet">

<g transform="translate(0.000000,512.000000) scale(0.100000,-0.100000)"
fill="#000000" stroke="none">
<path d="M3754 3992 c-29 -23 -44 -54 -44 -90 0 -23 22 -58 90 -143 55 -69 96
-131 105 -159 17 -51 54 -93 98 -109 38 -15 249 -14 281 0 31 15 57 67 49 100
-9 37 -21 48 -256 240 -206 169 -220 179 -260 179 -25 0 -51 -8 -63 -18z"/>
<path d="M2882 3600 c-40 -10 -77 -22 -83 -26 -17 -10 49 -71 105 -95 110 -48
250 -19 327 68 l32 37 -54 13 c-98 24 -245 26 -327 3z"/>
<path d="M583 3575 c-72 -31 -94 -135 -42 -192 42 -44 591 -486 628 -505 43
-22 128 -24 175 -4 l34 14 -24 49 c-67 135 -46 277 57 388 l40 43 -58 34
c-142 84 -282 159 -322 173 -60 21 -440 21 -488 0z"/>
<path d="M3351 3527 c-32 -52 -106 -116 -169 -145 -50 -24 -69 -27 -162 -27
-99 0 -110 2 -171 32 -39 20 -85 53 -112 82 l-46 49 -39 -27 c-65 -48 -131
-132 -178 -226 -24 -50 -44 -96 -44 -103 0 -15 -12 -13 630 -87 311 -36 579
-67 595 -70 28 -5 34 -1 68 52 44 69 82 182 92 276 6 58 5 71 -11 88 -33 37
-92 59 -247 95 -84 19 -159 37 -168 40 -11 3 -24 -7 -38 -29z"/>
<path d="M4379 3431 c-45 -48 -96 -61 -226 -61 -91 1 -137 6 -205 25 l-28 7 0
-59 c0 -139 -76 -322 -180 -435 -32 -35 -150 -144 -264 -243 l-206 -180 193
-6 c166 -5 200 -8 248 -27 102 -40 175 -121 209 -228 l17 -55 95 123 c53 68
180 229 282 358 102 129 186 238 186 243 0 4 -43 7 -96 7 -148 0 -164 18 -139
159 21 115 33 149 55 161 10 6 64 10 119 10 56 0 101 2 101 5 0 6 -121 235
-123 234 -1 0 -18 -18 -38 -38z"/>
<path d="M1578 3306 c-100 -36 -158 -118 -158 -220 0 -47 20 -95 75 -181 53
-84 73 -104 130 -131 79 -38 81 -37 77 58 -5 104 20 176 82 245 93 102 194
127 411 99 66 -8 120 -14 120 -13 0 1 15 37 32 80 l32 77 -382 0 c-292 -1
-391 -4 -419 -14z"/>
<path d="M4387 3123 c-3 -5 -8 -34 -12 -66 l-7 -58 108 3 108 3 9 38 c5 20 6
49 3 62 -6 25 -8 25 -106 25 -54 0 -101 -3 -103 -7z"/>
<path d="M1962 3071 c-61 -21 -105 -58 -135 -116 -27 -52 -29 -155 -4 -203 10
-17 80 -111 157 -206 l139 -175 144 0 144 0 16 33 c57 121 218 207 357 191 78
-9 169 -53 225 -109 25 -25 48 -46 50 -46 7 0 519 452 523 462 2 4 -3 8 -11 8
-8 0 -302 34 -653 75 -352 41 -682 79 -734 85 -52 6 -111 12 -130 15 -19 2
-59 -4 -88 -14z m370 -208 c35 -31 23 -61 -59 -144 -42 -43 -84 -81 -94 -84
-38 -12 -81 35 -62 69 19 33 165 176 180 176 9 0 25 -7 35 -17z m170 -120 c34
-30 22 -59 -59 -143 -83 -87 -112 -103 -143 -75 -38 34 -26 63 63 152 46 46
92 83 102 83 10 0 27 -7 37 -17z"/>
<path d="M1395 2779 c-22 -10 -48 -19 -57 -19 -10 0 -18 -4 -18 -9 0 -4 144
-126 320 -270 318 -259 321 -261 330 -235 6 15 19 38 29 53 l18 26 -122 155
-123 154 -80 12 c-94 13 -168 50 -221 110 l-36 41 -40 -18z"/>
<path d="M4404 2591 c-70 -89 -131 -161 -136 -161 -4 0 -8 -4 -8 -10 0 -5 -38
-58 -85 -117 -47 -60 -85 -114 -85 -122 0 -16 82 -328 106 -403 19 -59 54 -88
106 -88 53 0 92 22 112 65 17 35 17 37 -49 283 -36 136 -68 255 -71 265 -5 16
16 17 350 17 l356 0 -15 38 c-33 78 -83 150 -156 223 -59 59 -95 86 -160 117
-140 69 -118 78 -265 -107z"/>
<path d="M620 2570 c-416 -108 -655 -530 -534 -942 57 -193 234 -390 419 -466
109 -46 166 -57 290 -57 227 0 395 72 548 235 135 143 199 305 200 505 1 292
-155 543 -418 670 -49 24 -122 50 -162 59 -99 22 -249 20 -343 -4z m347 -385
c308 -151 269 -594 -61 -696 -134 -42 -269 -7 -372 95 -97 97 -133 226 -100
356 61 238 312 353 533 245z"/>
<path d="M719 2107 c-131 -49 -197 -150 -186 -284 15 -186 218 -300 385 -217
198 98 203 382 9 481 -62 31 -155 40 -208 20z"/>
<path d="M2635 2471 c-120 -56 -181 -197 -140 -322 33 -99 143 -179 245 -179
51 0 126 30 169 67 140 120 113 345 -51 427 -65 33 -162 36 -223 7z"/>
<path d="M3155 2352 l-49 -17 -1 -95 c-1 -82 -4 -103 -29 -157 -107 -234 -410
-289 -591 -108 -63 62 -92 123 -106 220 l-11 75 -115 0 c-128 0 -163 -11 -182
-58 -7 -16 -9 -40 -6 -54 4 -15 153 -171 368 -385 322 -320 367 -362 411 -377
41 -13 98 -16 340 -16 284 0 292 1 342 24 60 28 117 91 138 154 10 27 16 80
16 132 0 104 19 172 65 237 66 91 79 123 79 193 0 74 -22 126 -75 178 -65 63
-82 67 -324 69 -188 2 -227 0 -270 -15z"/>
<path d="M1692 2290 c3 -8 42 -132 88 -275 45 -143 86 -264 91 -270 6 -6 25
-4 52 5 36 13 51 28 104 105 34 50 62 95 63 100 0 15 -66 77 -195 182 -191
155 -209 168 -203 153z"/>
<path d="M4643 2161 c175 -190 168 -464 -16 -638 -88 -84 -189 -123 -314 -123
-244 0 -443 198 -443 440 0 82 -7 83 -50 7 -26 -45 -30 -62 -30 -127 0 -108
-15 -187 -48 -251 l-29 -56 41 -44 c139 -149 307 -227 511 -236 270 -12 513
110 660 332 135 204 159 486 60 703 l-24 52 -187 0 -186 0 55 -59z"/>
<path d="M4444 2153 c3 -10 24 -87 47 -172 49 -184 50 -237 3 -303 -52 -75
-174 -116 -259 -88 -43 14 -100 62 -119 99 -8 14 -31 89 -51 166 -21 77 -41
144 -45 148 -10 12 -36 -58 -45 -120 -9 -68 16 -163 60 -230 45 -67 120 -118
208 -139 158 -39 317 39 389 193 72 152 15 342 -131 435 -52 32 -64 35 -57 11z"/>
<path d="M1613 2109 c49 -213 49 -308 0 -516 -4 -19 1 -23 38 -30 l44 -9 18
40 c10 23 28 51 39 63 l21 23 -22 72 c-62 209 -119 372 -131 376 -9 3 -11 -2
-7 -19z"/>
<path d="M2110 1791 c-72 -105 -90 -120 -182 -150 -85 -28 -118 -63 -118 -125
0 -54 28 -92 78 -106 24 -7 163 -10 400 -8 l362 3 -239 239 -238 238 -63 -91z"/>
</g>
</svg>
