<?xml version="1.0" standalone="no"?>
<!DOCTYPE svg PUBLIC "-//W3C//DTD SVG 20010904//EN"
 "http://www.w3.org/TR/2001/REC-SVG-20010904/DTD/svg10.dtd">
<svg version="1.0" xmlns="http://www.w3.org/2000/svg"
 width="283.000000pt" height="180.000000pt" viewBox="0 0 283.000000 180.000000"
 preserveAspectRatio="xMidYMid meet">

<g transform="translate(0.000000,180.000000) scale(0.100000,-0.100000)"
fill="#000000" stroke="none">
<path d="M1638 1633 c-14 -35 -15 -290 -1 -304 6 -6 16 -3 28 11 31 34 37 22
10 -23 -23 -40 -33 -87 -19 -87 3 0 17 9 31 20 30 24 44 18 20 -7 -26 -30 -39
-73 -26 -89 10 -12 15 -12 30 2 22 20 24 15 8 -20 -13 -27 -1 -51 86 -168 41
-56 56 -69 85 -74 19 -3 48 -10 64 -15 l29 -9 -6 99 c-13 188 -76 371 -184
528 -52 77 -124 163 -136 163 -4 0 -13 -12 -19 -27z"/>
<path d="M652 1393 c-12 -21 9 -96 50 -178 38 -74 86 -145 98 -145 6 0 10 22
10 49 0 66 16 73 23 11 11 -96 66 -169 68 -92 1 20 4 48 8 62 7 21 9 17 15
-26 8 -58 38 -114 61 -114 11 0 15 12 15 50 0 28 5 50 10 50 6 0 10 -10 10
-22 0 -12 9 -41 20 -64 18 -36 28 -44 78 -62 31 -11 102 -36 157 -56 89 -32
101 -34 112 -20 10 14 13 13 23 -6 6 -12 35 -32 63 -45 l51 -24 23 21 22 21
-82 64 c-222 175 -549 364 -730 423 -35 11 -38 15 -32 39 4 14 8 27 9 29 6 5
179 -69 293 -127 202 -101 356 -199 520 -333 64 -52 75 -58 94 -48 20 11 19
14 -34 61 -236 210 -447 347 -656 426 -61 23 -252 73 -278 73 -7 0 -16 -8 -21
-17z"/>
<path d="M1764 830 c-189 -39 -318 -242 -271 -423 16 -60 55 -134 82 -157 15
-13 16 -11 11 22 -8 48 10 137 33 168 10 14 35 31 57 38 33 11 45 11 80 -3 22
-8 53 -29 69 -45 23 -24 37 -30 70 -30 97 0 186 56 200 126 3 21 19 50 36 66
l29 29 -19 38 c-26 50 -102 118 -164 146 -59 27 -152 38 -213 25z"/>
<path d="M2160 516 c0 -32 14 -55 26 -43 8 8 -7 77 -17 77 -5 0 -9 -15 -9 -34z"/>
<path d="M1674 405 c-24 -25 -27 -42 -24 -139 3 -77 12 -92 72 -112 95 -31
246 -16 269 27 13 26 22 141 12 156 -6 8 -27 10 -66 6 -53 -5 -58 -8 -74 -42
-32 -66 -128 -67 -166 -2 -15 26 -15 29 -1 35 26 10 46 7 59 -10 15 -21 55
-10 55 16 0 28 -40 69 -78 80 -29 8 -37 6 -58 -15z"/>
<path d="M2089 406 c-24 -21 -26 -28 -25 -99 1 -42 4 -77 8 -77 20 0 98 122
98 153 0 12 -41 48 -52 47 -2 0 -15 -11 -29 -24z"/>
</g>
</svg>
