<?xml version="1.0" standalone="no"?>
<!DOCTYPE svg PUBLIC "-//W3C//DTD SVG 20010904//EN"
 "http://www.w3.org/TR/2001/REC-SVG-20010904/DTD/svg10.dtd">
<svg version="1.0" xmlns="http://www.w3.org/2000/svg"
 width="512.000000pt" height="512.000000pt" viewBox="0 0 512.000000 512.000000"
 preserveAspectRatio="xMidYMid meet">

<g transform="translate(0.000000,512.000000) scale(0.100000,-0.100000)"
fill="#000000" stroke="none">
<path d="M2625 5018 c-230 -83 -292 -376 -115 -542 158 -147 414 -98 511 99
20 41 24 65 24 135 0 73 -4 93 -28 142 -55 112 -166 179 -295 177 -37 0 -80
-5 -97 -11z"/>
<path d="M4419 4672 c-15 -9 -83 -71 -151 -138 l-124 -120 -97 -218 c-89 -197
-112 -239 -249 -443 l-150 -226 33 -76 c75 -174 174 -310 262 -361 64 -37 131
-40 211 -10 100 38 113 53 173 190 30 69 55 126 57 127 3 4 269 -117 278 -126
10 -9 -146 -165 -227 -226 -206 -159 -389 -198 -555 -118 -70 34 -181 144
-245 243 -107 166 -235 492 -234 597 1 85 -55 143 -138 143 -23 0 -119 -29
-232 -70 -107 -39 -197 -67 -201 -63 -4 4 -31 62 -61 128 -52 116 -54 123 -54
210 0 72 -5 98 -22 130 -81 153 -302 189 -414 68 -34 -36 -32 -31 -275 -564
-189 -414 -207 -459 -207 -509 0 -66 27 -126 77 -167 19 -15 139 -75 265 -133
127 -58 231 -108 231 -112 0 -4 -81 -130 -180 -280 -197 -301 -213 -336 -192
-415 26 -97 110 -164 206 -165 81 -1 137 30 190 105 111 157 490 745 502 780
18 50 18 118 0 161 -22 53 -76 88 -279 182 -106 48 -194 89 -195 90 -5 3 128
357 137 367 5 5 16 -11 25 -35 31 -78 78 -147 113 -163 52 -25 115 -9 391 96
85 33 158 59 163 59 5 0 9 -7 9 -15 0 -27 81 -238 133 -345 113 -232 249 -391
407 -474 171 -90 338 -86 545 14 128 63 247 153 393 300 105 104 122 118 161
124 83 13 142 61 185 151 47 99 46 182 -2 253 -15 22 -160 151 -322 287 -162
136 -299 251 -304 256 -6 5 0 93 13 220 29 271 29 278 6 295 -24 18 -25 17
-56 -4z"/>
<path d="M413 3042 c-172 -62 -288 -242 -338 -526 -32 -183 -19 -317 54 -591
48 -177 35 -236 -75 -356 -30 -32 -54 -67 -54 -77 0 -23 30 -52 55 -52 40 0
150 66 215 130 141 137 211 293 279 620 47 227 81 309 162 395 26 28 68 61 91
73 41 20 128 40 128 30 0 -3 -11 -30 -25 -61 -56 -128 -75 -305 -46 -427 20
-83 82 -208 134 -272 l47 -58 -145 -222 c-80 -122 -147 -236 -151 -253 -8 -43
53 -1160 66 -1207 6 -20 24 -48 41 -62 54 -46 152 -29 183 32 8 15 42 181 77
369 34 189 64 341 66 340 2 -2 44 -145 93 -318 109 -380 114 -392 151 -424 56
-46 145 -28 184 38 17 28 17 51 -5 556 l-23 526 147 213 147 212 477 0 477 0
99 -199 99 -199 -82 -532 -81 -533 21 -44 c25 -51 61 -73 123 -73 59 0 96 32
130 112 14 35 91 232 170 438 80 206 147 368 150 360 3 -8 40 -193 82 -410 42
-217 82 -410 90 -427 27 -66 117 -92 182 -53 68 42 67 -9 11 989 l-51 900 117
266 c65 146 116 267 114 269 -2 2 -38 10 -79 19 -41 8 -101 25 -132 37 -141
53 -312 199 -418 358 l-55 81 -120 1 -120 0 0 -102 c0 -90 -3 -110 -26 -159
-37 -78 -515 -805 -566 -860 -80 -86 -219 -133 -333 -111 -232 43 -375 259
-316 477 18 68 27 85 165 296 66 101 117 186 113 190 -4 3 -79 39 -167 80
-140 65 -167 81 -216 131 l-56 58 -104 0 c-168 0 -300 -37 -415 -116 -35 -24
-69 -44 -75 -44 -6 0 -23 8 -37 18 -64 45 -185 103 -272 133 -123 42 -275 50
-357 21z"/>
</g>
</svg>
