<svg width="96" height="96" xmlns="http://www.w3.org/2000/svg" xmlns:xlink="http://www.w3.org/1999/xlink" xml:space="preserve" overflow="hidden"><g transform="translate(-713 -267)"><path d="M754.9 314.5C752.2 314.1 749.6 313.2 747.3 311.8 746.6 311.3 745.8 311.1 744.9 311L720.4 311C719 311 717.8 311.8 717.3 313 716.8 314.3 717 315.7 718 316.7 724.7 323.3 728.1 327 737.6 327L749.6 327 754.9 314.5Z"/><path d="M751.5 344.9 750 348.5C749.7 349.5 748.6 350.1 747.5 349.9L746 349.3C745.1 348.8 744.7 347.5 745.3 346.6L746.8 343C748.1 340.3 751.6 337.8 751.6 337.8L751.7 337.7 751.8 337.6C751.8 337.6 751.8 337.6 751.8 337.7L751.8 337.8C751.8 337.8 752.5 342 751.5 344.9ZM767.8 293.1 769.3 289.5C769.6 288.5 770.7 287.9 771.8 288.1L773.3 288.7C774.2 289.2 774.6 290.4 774 291.4L772.5 295C771.2 297.7 767.7 300.2 767.7 300.2L767.6 300.3 767.5 300.3C767.5 300.3 767.5 300.2 767.5 300.2L767.5 300.1C767.4 300.2 766.7 296 767.8 293.1ZM801.6 311 777.1 311C776.3 311 775.4 311.3 774.7 311.8 772.7 313 770.5 313.9 768.2 314.3 766.7 314.6 765.1 314.8 763.5 315L768.4 303.4C768.8 303.3 769.1 303.1 769.4 302.8 769.9 302.4 773.6 299.7 775.2 296.4L776.8 292.7C778 290.2 776.9 287.2 774.4 286.1L772.9 285.5C770.3 284.6 767.4 285.9 766.4 288.5L764.9 292C763.6 295.6 764.2 300 764.4 300.6 764.4 301 764.5 301.3 764.7 301.7L750.8 334.7C750.4 334.8 750.1 335 749.8 335.3 749.3 335.7 745.6 338.4 744 341.7L742.4 345.4C741.2 347.9 742.3 350.9 744.8 352L746.3 352.6C748.9 353.5 751.8 352.2 752.8 349.6L754.3 345.9C755.6 342.3 755 337.9 754.8 337.3 754.8 336.9 754.7 336.6 754.5 336.2L758.4 326.9 784.3 326.9C793.8 326.9 797.2 323.2 803.9 316.6 804.9 315.7 805.1 314.2 804.6 313 804.2 311.8 803 311 801.6 311Z"/></g></svg>