<svg width="96" height="96" xmlns="http://www.w3.org/2000/svg" xmlns:xlink="http://www.w3.org/1999/xlink" xml:space="preserve" overflow="hidden"><g transform="translate(-544 -311)"><path d="M561 343.5C556.3 347.1 552.5 350.8 550 353.7 547.4 356.7 547.4 361.2 550 364.3 552.5 367.2 556.3 370.9 561 374.5L561 343.5Z"/><path d="M634 353.7C631.5 350.8 627.7 347.1 623 343.5L623 374.4C627.7 370.8 631.5 367.1 634 364.2 636.7 361.2 636.7 356.8 634 353.7Z"/><path d="M592 331C583.2 331 574.4 334.7 567 339.4L567 378.7C574.4 383.4 583.2 387.1 592 387.1 600.8 387.1 609.6 383.4 617 378.7L617 339.4C609.6 334.7 600.8 331 592 331ZM610 364C610 365.1 609.1 366 608 366 606.9 366 606 365.1 606 364L606 361 602 361 602 364C602 365.1 601.1 366 600 366 598.9 366 598 365.1 598 364L598 361 594 361 594 364C594 365.1 593.1 366 592 366 590.9 366 590 365.1 590 364L590 361 586 361 586 364C586 365.1 585.1 366 584 366 582.9 366 582 365.1 582 364L582 361 578 361 578 364C578 365.1 577.1 366 576 366 574.9 366 574 365.1 574 364L574 354C574 352.9 574.9 352 576 352 577.1 352 578 352.9 578 354L578 357 582 357 582 354C582 352.9 582.9 352 584 352 585.1 352 586 352.9 586 354L586 357 590 357 590 354C590 352.9 590.9 352 592 352 593.1 352 594 352.9 594 354L594 357 598 357 598 354C598 352.9 598.9 352 600 352 601.1 352 602 352.9 602 354L602 357 606 357 606 354C606 352.9 606.9 352 608 352 609.1 352 610 352.9 610 354L610 364Z"/></g></svg>