<svg width="96" height="96" xmlns="http://www.w3.org/2000/svg" xmlns:xlink="http://www.w3.org/1999/xlink" xml:space="preserve" overflow="hidden"><g transform="translate(-87 -385)"><path d="M129.75 454.62C130.973 453.947 131.738 452.666 131.75 451.27L131.75 450.94C131.739 449.148 130.497 447.599 128.75 447.2L128.75 443.11C131.303 440.283 131.914 436.201 130.3 432.75 129.08 429.97 123.35 426.06 121.3 424.93 120.375 424.414 119.665 423.584 119.3 422.59 120.231 423.258 121.403 423.494 122.52 423.24 124.31 422.59 125.86 424.24 126.29 424.77 127.4 426 129.39 425.39 131.18 424.63 133.995 423.405 135.526 420.336 134.81 417.35 134.76 415.82 127.11 410.72 127.11 410.72L126.84 408.83C126.84 408.5 125.66 405.09 120.5 404.21 120.5 404.21 121.43 400.87 120.09 400.21 117.29 398.92 107.09 400.91 101.43 410.03 97.24 416.78 97.14 424.95 101.15 433.03 102.15 435.03 104.71 439.03 104.71 442.03L104.71 447.2C102.963 447.599 101.721 449.148 101.71 450.94L101.71 451.27C101.722 452.666 102.486 453.947 103.71 454.62L103.71 458.11 99.71 458.11 99.71 466.11 133.71 466.11 133.71 458.11 129.71 458.11Z"/><path d="M167.75 458.11 167.75 454.62C168.974 453.947 169.738 452.666 169.75 451.27L169.75 450.94C169.745 448.827 168.033 447.116 165.92 447.11L164.8 447.11 163.69 426.11 145.81 426.11 144.7 447.11 143.58 447.11C141.467 447.116 139.755 448.827 139.75 450.94L139.75 451.27C139.762 452.666 140.527 453.947 141.75 454.62L141.75 458.11 137.75 458.11 137.75 466.11 171.75 466.11 171.75 458.11Z"/><path d="M163.75 418.11C165.407 418.11 166.75 419.453 166.75 421.11L166.75 421.11C166.75 422.767 165.407 424.11 163.75 424.11L145.75 424.11C144.093 424.11 142.75 422.767 142.75 421.11L142.75 421.11C142.75 419.453 144.093 418.11 145.75 418.11Z"/><path d="M166.75 401.11 161.75 401.11 161.75 405.11 159.75 405.11 159.75 401.11 149.75 401.11 149.75 405.11 147.75 405.11 147.75 401.11 142.75 401.11 142.75 413.11 145.08 413.11 145.58 416.11 154.75 416.11 163.92 416.11 164.42 413.11 166.75 413.11 166.75 401.11Z"/></g></svg>