<?xml version="1.0" standalone="no"?>
<!DOCTYPE svg PUBLIC "-//W3C//DTD SVG 20010904//EN"
 "http://www.w3.org/TR/2001/REC-SVG-20010904/DTD/svg10.dtd">
<svg version="1.0" xmlns="http://www.w3.org/2000/svg"
 width="719.000000pt" height="900.000000pt" viewBox="0 0 719.000000 900.000000"
 preserveAspectRatio="xMidYMid meet">

<g transform="translate(0.000000,900.000000) scale(0.100000,-0.100000)"
fill="#000000" stroke="none">
<path d="M1880 8970 c-304 -81 -538 -335 -622 -677 -17 -69 -21 -117 -21 -223
1 -167 21 -252 95 -399 85 -170 216 -287 390 -348 99 -35 255 -43 360 -18 310
74 554 334 640 682 17 69 21 117 21 223 -1 161 -21 249 -87 385 -90 184 -214
297 -397 361 -104 37 -271 43 -379 14z"/>
<path d="M3250 7267 c-33 -17 -50 -53 -50 -109 l0 -48 -77 -1 c-43 -1 -701 -5
-1463 -8 l-1385 -6 -55 -22 c-71 -29 -145 -101 -179 -172 -22 -47 -26 -70 -26
-146 0 -78 4 -97 28 -146 30 -63 92 -125 159 -161 43 -23 46 -23 488 -28 l445
-5 3 -1157 2 -1158 920 0 920 0 2 790 3 790 141 -128 c243 -221 268 -237 385
-237 56 0 76 5 134 35 85 43 110 76 342 432 92 142 209 320 258 396 50 76 127
195 172 265 l83 127 243 0 c224 0 245 2 260 18 14 16 17 45 17 190 l0 172
1060 0 1061 0 24 25 c24 23 25 31 25 134 0 60 -3 117 -6 126 -18 47 67 45
-1986 45 -1522 0 -1928 -3 -1948 -13z m387 -850 c-2 -7 -44 -72 -92 -145 l-86
-133 -42 37 c-23 21 -92 83 -154 138 l-111 101 96 6 c205 11 394 10 389 -4z"/>
<path d="M1082 3758 c-36 -195 -264 -1394 -457 -2413 -149 -785 -186 -991
-182 -1037 9 -109 88 -208 195 -242 89 -29 325 -68 374 -62 88 10 181 74 221
154 21 41 7 -31 202 1002 47 250 151 795 230 1210 79 415 174 913 210 1105 36
193 69 360 72 373 l5 22 -424 0 -424 0 -22 -112z"/>
<path d="M2130 3853 c0 -10 7 -54 15 -98 9 -44 86 -447 171 -895 216 -1141
206 -1087 283 -1490 38 -201 104 -547 147 -770 44 -236 84 -420 95 -442 42
-82 132 -143 227 -155 61 -7 349 50 413 82 25 13 60 40 77 59 82 94 88 164 37
431 -41 216 -139 730 -420 2215 -108 569 -199 1045 -202 1058 l-5 22 -419 0
c-392 0 -419 -1 -419 -17z"/>
</g>
</svg>
