<svg width="96" height="96" xmlns="http://www.w3.org/2000/svg" xmlns:xlink="http://www.w3.org/1999/xlink" xml:space="preserve" overflow="hidden"><g transform="translate(-555 -206)"><path d="M635.5 251.5C635.5 256.471 631.471 260.5 626.5 260.5 621.529 260.5 617.5 256.471 617.5 251.5 617.5 246.529 621.529 242.5 626.5 242.5 631.471 242.5 635.5 246.529 635.5 251.5Z"/><path d="M583 267.5 583 267.5C584.3 267.4 585.6 267.1 586.9 266.6 588.9 265.8 590.9 265.4 593 265.3 595.1 265.4 597.2 265.8 599.1 266.6 600.3 267.1 601.6 267.4 603 267.5 604.3 267.4 605.6 267.1 606.9 266.6 608.9 265.8 610.9 265.4 613 265.3 615.1 265.4 617.2 265.8 619.1 266.6L619.8 266.8C619.8 266.3 619.6 265.9 619.4 265.5L617.4 261.8 617.4 261.7 607.3 242.3 624.2 237.9C626.9 237.2 628.5 234.5 627.8 231.8 627.1 229.1 624.4 227.5 621.7 228.2L598.7 234.2C597.2 234.6 596 235.6 595.4 237 594.8 238.4 594.8 240 595.5 241.3L601.6 253.1 579.3 266.3C579.2 266.4 579.1 266.5 578.9 266.6L579.1 266.7C580.4 267.1 581.7 267.4 583 267.5Z"/><path d="M639 273.1C637.1 272.3 635.1 271.9 633 271.8L633 271.8C630.9 271.9 628.9 272.3 627 273.1 625.7 273.6 624.4 273.9 623 274L623 274C621.6 273.9 620.3 273.6 619 273.1 617.1 272.3 615.1 271.9 613 271.8L613 271.8C610.9 271.9 608.9 272.3 607 273.1 605.7 273.6 604.4 273.9 603 274 601.6 273.9 600.3 273.6 599 273.1 597.1 272.3 595.1 271.9 593 271.8L593 271.8C590.9 271.9 588.9 272.3 587 273.1 585.7 273.6 584.4 273.9 583 274 581.6 273.9 580.3 273.6 579 273.1 577.1 272.3 575.1 271.9 573 271.8L573 271.8C570.9 271.9 568.9 272.3 567 273.1 565.7 273.6 564.4 273.9 563 274L563 280C565.1 279.9 567.1 279.5 569 278.7 570.3 278.2 571.6 277.8 573 277.8 574.4 277.9 575.7 278.2 577 278.7 578.9 279.5 580.9 279.9 583 280L583 280C585.1 279.9 587.1 279.5 589 278.7 590.3 278.2 591.6 277.8 593 277.8 594.4 277.9 595.7 278.2 597 278.7 598.9 279.5 600.9 279.9 603 280 605.1 279.9 607.1 279.5 609 278.7 610.3 278.2 611.6 277.8 613 277.8 614.4 277.9 615.7 278.2 617 278.7 618.9 279.5 620.9 279.9 623 280L623 280C625.1 279.9 627.1 279.5 629 278.7 630.3 278.2 631.6 277.8 633 277.8 634.4 277.9 635.7 278.2 637 278.7 638.9 279.5 640.9 279.9 643 280L643 274C641.6 273.9 640.3 273.6 639 273.1Z"/></g></svg>