<svg width="96" height="96" xmlns="http://www.w3.org/2000/svg" xmlns:xlink="http://www.w3.org/1999/xlink" xml:space="preserve" overflow="hidden"><g transform="translate(-802 -187)"><path d="M890 203C890 207.418 886.418 211 882 211 877.582 211 874 207.418 874 203 874 198.582 877.582 195 882 195 886.418 195 890 198.582 890 203Z"/><path d="M869 208 869 208 841 208C838.8 208 837 209.8 837 212 837 214.2 838.8 216 841 216L857.7 216 848.4 225.3C846.3 227.4 845.6 230.4 846.3 233L823.2 256.2C821.6 257.8 821.6 260.3 823.2 261.9 824 262.6 825 263 826 263 827 263 828 262.6 828.8 261.8L851 239.7 861 249.7 861 264C861 266.2 862.8 268 865 268 867.2 268 869 266.2 869 264L869 248C869 246.9 868.6 245.9 867.8 245.2L859.4 236.8C859.5 236.7 859.5 236.7 859.6 236.6L874.6 221.6C877.7 218.5 877.7 213.4 874.6 210.3 873.1 208.8 871.1 208 869 208Z"/><path d="M855 271 855 275 871 275C873.2 275 875 273.2 875 271L871 271 855 271Z"/><path d="M813.3 257.5 810.5 260.3 821.8 271.6C823.4 273.2 825.9 273.2 827.5 271.6L824.7 268.8 813.3 257.5Z"/></g></svg>