<?xml version="1.0" standalone="no"?>
<!DOCTYPE svg PUBLIC "-//W3C//DTD SVG 20010904//EN"
 "http://www.w3.org/TR/2001/REC-SVG-20010904/DTD/svg10.dtd">
<svg version="1.0" xmlns="http://www.w3.org/2000/svg"
 width="1024.000000pt" height="1024.000000pt" viewBox="0 0 1024.000000 1024.000000"
 preserveAspectRatio="xMidYMid meet">

<g transform="translate(0.000000,1024.000000) scale(0.100000,-0.100000)"
fill="#000000" stroke="none">
<path d="M1168 8820 c-313 -37 -569 -259 -654 -571 -25 -89 -25 -289 0 -378
62 -227 205 -398 416 -501 119 -57 204 -73 358 -68 104 4 141 10 207 32 116
39 209 98 301 190 91 91 149 185 191 311 24 71 27 96 27 220 1 120 -2 151 -22
215 -85 272 -300 476 -565 534 -86 19 -180 25 -259 16z"/>
<path d="M4569 8336 c-20 -7 -359 -216 -753 -464 -395 -249 -722 -452 -727
-452 -8 0 -969 273 -1040 295 -12 4 -29 -16 -63 -75 -108 -187 -289 -328 -502
-391 -100 -30 -285 -37 -395 -14 -169 34 -325 121 -443 245 l-67 72 -66 -12
c-115 -20 -204 -82 -241 -168 -11 -26 -77 -310 -147 -632 -102 -470 -126 -595
-122 -637 6 -55 44 -138 81 -172 35 -33 1498 -873 1546 -888 58 -18 144 -12
197 15 59 31 120 105 139 170 20 68 13 127 -22 199 -28 57 -64 89 -169 149
-140 81 -1190 687 -1193 689 -2 1 108 515 125 583 4 16 12 22 32 22 14 0 31
-4 37 -8 8 -5 -5 -85 -48 -281 -33 -150 -58 -275 -56 -276 2 -2 278 -162 613
-356 336 -193 625 -362 642 -375 40 -30 89 -100 110 -156 26 -71 21 -183 -11
-255 -34 -76 -103 -143 -181 -180 -50 -23 -73 -27 -140 -27 -101 0 -104 1
-449 201 -149 86 -367 212 -484 280 -117 68 -214 123 -216 123 -4 0 101 -625
110 -654 25 -84 74 -153 396 -559 211 -265 346 -443 341 -450 -4 -7 -214 -340
-466 -742 -253 -401 -471 -753 -484 -781 -94 -205 -10 -440 195 -541 73 -37
80 -38 182 -38 103 0 109 1 182 38 51 25 91 53 119 85 58 65 1166 1827 1184
1882 35 107 28 218 -20 315 -13 28 -83 124 -155 215 -73 91 -141 178 -153 194
l-21 29 40 -24 c22 -13 304 -186 626 -383 l585 -359 358 -846 c197 -465 373
-876 391 -912 60 -122 175 -206 311 -230 152 -27 326 53 411 189 50 79 65 142
60 246 l-5 91 -407 960 c-224 528 -418 979 -431 1001 -35 60 -117 130 -241
205 -60 36 -239 146 -399 244 -159 98 -402 247 -540 331 l-250 153 -153 923
c-85 508 -156 935 -159 950 l-5 26 467 -134 c271 -78 485 -134 510 -134 23 0
62 7 85 15 59 21 1584 981 1628 1025 108 109 100 292 -19 393 -71 62 -177 83
-260 53z"/>
<path d="M5980 6261 c-119 -37 -198 -150 -187 -269 8 -99 68 -182 156 -220 87
-37 210 -11 280 59 131 131 78 364 -98 424 -47 16 -109 18 -151 6z"/>
<path d="M7645 3499 c-894 -53 -1606 -280 -1742 -557 l-28 -57 -3 -412 -3
-413 101 0 100 0 0 155 c0 85 2 155 5 155 2 0 28 -15 57 -34 258 -164 699
-290 1228 -350 168 -20 392 -36 488 -36 l72 0 0 -265 0 -265 140 0 140 0 0
265 0 265 68 0 c89 0 313 17 487 36 517 57 991 195 1233 357 l52 36 0 -160 0
-159 94 0 94 0 4 413 c4 454 5 450 -59 533 -134 176 -595 351 -1141 434 -413
63 -943 85 -1387 59z m383 -147 l3 -62 -301 0 -302 0 7 43 c4 23 12 45 17 48
17 11 506 40 563 34 6 -1 11 -29 13 -63z m447 47 c213 -14 205 -11 205 -65 l0
-44 -295 0 -295 0 0 63 0 62 113 -2 c61 -2 184 -8 272 -14z m-1105 -69 l0 -40
-222 1 c-216 1 -221 1 -168 16 68 18 314 61 358 62 31 1 32 0 32 -39z m1577
15 c278 -48 280 -53 26 -54 l-223 -1 0 40 c0 49 -4 49 197 15z m-1581 -91 c-3
-9 -6 -49 -6 -90 l0 -74 -300 0 -300 0 0 39 c0 84 11 130 34 134 11 2 146 5
300 6 250 1 278 -1 272 -15z m654 -74 l0 -90 -301 0 -302 0 7 38 c3 20 6 61 6
90 l0 52 295 0 295 0 0 -90z m664 74 c3 -9 6 -49 6 -90 l0 -74 -300 0 -300 0
0 90 0 90 294 0 c259 0 295 -2 300 -16z m654 1 c6 -5 13 -45 17 -87 l7 -78
-301 0 -301 0 0 29 c0 15 -3 56 -6 90 l-7 62 291 -3 c177 -2 295 -7 300 -13z
m-2643 -92 c-4 -38 -8 -69 -10 -71 -1 -1 -67 -1 -146 0 l-144 3 65 34 c65 34
217 100 234 101 4 0 5 -30 1 -67z m2821 31 c49 -19 116 -50 149 -67 l59 -32
-143 -3 c-79 -1 -145 -1 -148 1 -7 8 -19 137 -12 137 3 0 46 -16 95 -36z
m-2836 -146 c0 -13 -3 -53 -7 -90 l-6 -68 -223 0 -223 0 11 32 c6 18 37 58 68
90 l56 58 162 0 c161 0 162 0 162 -22z m668 -65 l-3 -88 -308 -3 c-291 -2
-308 -1 -303 15 2 10 8 51 11 91 l7 72 299 0 300 0 -3 -87z m672 -3 l0 -90
-306 0 -307 0 7 38 c3 20 6 61 6 90 l0 52 300 0 300 0 0 -90z m678 -2 l3 -88
-306 0 -305 0 0 90 0 90 303 -2 302 -3 3 -87z m665 85 c3 -5 8 -45 12 -90 l7
-83 -306 0 -306 0 0 44 c0 24 -3 64 -6 90 l-7 46 301 0 c165 0 303 -3 305 -7z
m433 -25 c40 -35 94 -113 94 -135 0 -10 -46 -13 -219 -13 l-219 0 -7 63 c-3
34 -8 74 -11 90 l-6 27 166 0 165 0 37 -32z m-3141 -245 c-11 -124 8 -113
-185 -113 l-169 0 -24 33 c-37 49 -57 93 -57 127 l0 30 221 0 221 0 -7 -77z
m685 13 c0 -35 -3 -78 -6 -95 l-6 -31 -310 0 -310 0 6 38 c3 20 8 63 12 95 l6
57 304 0 304 0 0 -64z m680 -31 l0 -95 -311 0 -312 0 7 46 c3 26 6 69 6 95 l0
49 305 0 305 0 0 -95z m688 -2 l3 -93 -311 0 -310 0 0 88 c0 49 3 92 7 95 4 4
142 6 307 5 l301 -3 3 -92z m676 89 c2 -4 8 -47 12 -95 l7 -87 -311 0 -310 0
-4 88 c-2 48 -3 90 -1 95 5 10 600 9 607 -1z m512 -6 c9 -24 -14 -90 -48 -134
l-32 -42 -172 0 -171 0 -9 91 c-5 49 -8 92 -5 95 2 2 100 4 218 4 174 0 215
-3 219 -14z m-3261 -258 c-4 -29 -8 -63 -11 -75 l-4 -22 -63 27 c-70 30 -194
99 -203 113 -3 5 55 9 141 9 l146 0 -6 -52z m695 18 c0 -18 -3 -61 -6 -95 l-7
-61 -291 0 c-160 0 -301 3 -314 6 -22 6 -23 10 -17 63 3 31 8 71 11 89 l5 32
309 0 310 0 0 -34z m690 -61 l0 -95 -316 0 -317 0 7 61 c3 34 6 77 6 95 l0 34
310 0 310 0 0 -95z m700 0 l0 -95 -315 0 -315 0 0 95 0 95 315 0 315 0 0 -95z
m697 13 c5 -46 5 -87 0 -93 -5 -6 -123 -10 -315 -10 l-307 0 -3 93 -3 92 310
0 309 0 9 -82z m333 61 c-29 -23 -249 -134 -254 -128 -2 2 -7 37 -11 77 l-7
72 148 0 149 0 -25 -21z m-2432 -229 c4 -62 -2 -65 -119 -46 -131 22 -329 65
-349 77 -9 5 85 8 225 6 l240 -2 3 -35z m702 -35 l0 -75 -83 0 c-142 0 -543
30 -551 42 -1 1 0 27 2 56 l4 52 314 0 314 0 0 -75z m708 18 c3 -48 1 -53 -20
-57 -45 -11 -256 -26 -435 -33 l-183 -6 0 70 c0 38 3 73 7 76 4 4 146 6 317 5
l311 -3 3 -52z m542 48 c-30 -17 -396 -91 -451 -91 -16 0 -19 8 -19 50 l0 50
243 0 c137 0 236 -4 227 -9z"/>
</g>
</svg>
