<?xml version="1.0" encoding="UTF-8" standalone="no"?>
<svg
   version="1.0"
   width="512.000000pt"
   height="512.000000pt"
   viewBox="0 0 512.000000 512.000000"
   preserveAspectRatio="xMidYMid meet"
   id="svg2"
   sodipodi:docname="sportverein.svg"
   inkscape:version="1.4.2 (f4327f4, 2025-05-13)"
   xmlns:inkscape="http://www.inkscape.org/namespaces/inkscape"
   xmlns:sodipodi="http://sodipodi.sourceforge.net/DTD/sodipodi-0.dtd"
   xmlns="http://www.w3.org/2000/svg"
   xmlns:svg="http://www.w3.org/2000/svg">
  <defs
     id="defs2" />
  <sodipodi:namedview
     id="namedview2"
     pagecolor="#ffffff"
     bordercolor="#000000"
     borderopacity="0.25"
     inkscape:showpageshadow="2"
     inkscape:pageopacity="0.0"
     inkscape:pagecheckerboard="0"
     inkscape:deskcolor="#d1d1d1"
     inkscape:document-units="pt"
     inkscape:zoom="1.7211914"
     inkscape:cx="341.62383"
     inkscape:cy="341.33333"
     inkscape:window-width="2560"
     inkscape:window-height="1377"
     inkscape:window-x="-8"
     inkscape:window-y="-8"
     inkscape:window-maximized="1"
     inkscape:current-layer="g2" />
  <g
     transform="translate(0.000000,512.000000) scale(0.100000,-0.100000)"
     fill="#000000"
     stroke="none"
     id="g2">
    <rect
       style="fill:#ffffff;stroke-width:0.731493"
       id="rect2"
       width="484.54803"
       height="467.11829"
       x="11.329362"
       y="27.451914"
       transform="matrix(9.9999998,0,0,-9.9999998,0,5120)" />
    <path
       d="M1370 4770 c-11 -11 -22 -30 -24 -42 -31 -149 -43 -190 -76 -256 -73 -144 -180 -252 -327 -325 -136 -69 -306 -93 -443 -62 -134 30 -152 30 -178 2 -23 -24 -23 -28 -23 -260 1 -347 23 -612 77 -907 88 -479 226 -829 473 -1200 39 -57 69 -105 67 -107 -1 -1 -37 -8 -79 -14 -132 -20 -149 -51 -102 -188 17 -52 21 -73 12 -76 -7 -2 -137 -37 -290 -78 -152 -40 -286 -80 -297 -90 -11 -9 -22 -28 -26 -43 -12 -48 21 -74 172 -137 76 -32 140 -60 142 -62 3 -2 -13 -26 -35 -52 -115 -138 -153 -195 -153 -229 0 -40 32 -74 69 -74 37 0 872 219 899 237 36 22 43 53 26 117 -8 31 -13 60 -10 65 3 4 50 13 106 20 l100 13 63 -58 c96 -90 248 -216 392 -324 238 -178 600 -410 641 -410 41 0 389 222 614 392 112 84 304 243 422 349 l57 51 101 -12 c55 -7 100 -15 100 -17 0 -2 -7 -33 -16 -68 -15 -60 -15 -67 0 -90 10 -14 27 -30 39 -35 42 -19 857 -230 885 -230 38 0 72 37 72 78 0 24 -21 57 -96 152 -75 95 -94 124 -83 131 8 5 71 32 141 60 69 28 134 59 143 69 9 10 17 32 17 50 2 60 -22 71 -322 149 -151 40 -277 74 -279 77 -2 2 8 42 22 89 40 130 22 155 -126 176 -86 12 -87 12 -72 33 119 165 292 495 364 693 145 399 244 1008 253 1561 l3 174 -29 25 c-20 17 -37 23 -55 20 -14 -3 -64 -13 -111 -22 -220 -45 -460 29 -627 193 -105 101 -171 228 -204 387 -13 65 -24 95 -40 108 -20 16 -91 17 -1175 17 -1136 0 -1154 0 -1174 -20z m2274 -207 c62 -243 258 -480 482 -579 137 -60 317 -85 443 -60 l44 8 -6 -193 c-22 -654 -141 -1218 -343 -1622 -78 -155 -251 -435 -288 -466 -9 -8 -66 -4 -207 14 -876 112 -1559 112 -2447 -1 -112 -14 -210 -23 -217 -21 -23 9 -223 320 -294 458 -38 74 -90 187 -116 253 -144 368 -225 868 -225 1394 l0 189 63 -13 c211 -45 476 41 658 214 121 114 217 272 256 423 l17 69 1082 0 1082 0 16 -67z m-479 -2997 c295 -26 880 -96 1007 -122 l26 -5 -53 -157 -52 -157 -39 1 c-21 1 -154 18 -294 37 -569 80 -878 102 -1335 94 -395 -7 -672 -32 -1195 -107 -113 -17 -210 -30 -217 -30 -13 0 -119 308 -109 317 22 22 858 119 1226 143 197 12 824 4 1035 -14z m-2320 -485 c42 -126 56 -138 156 -123 40 6 74 10 75 9 1 -1 4 -11 6 -21 3 -17 -26 -26 -257 -87 -143 -38 -264 -69 -268 -69 -5 0 9 21 30 48 61 73 73 94 73 126 0 42 -21 60 -113 97 -44 18 -76 34 -69 37 61 20 301 80 316 79 15 -2 26 -23 51 -96z m3600 59 c83 -22 154 -42 159 -43 5 -2 -24 -16 -64 -32 -100 -40 -120 -58 -120 -103 0 -30 10 -50 51 -100 28 -35 49 -65 47 -68 -3 -2 -121 27 -264 65 -228 61 -259 71 -256 87 2 11 5 20 6 22 2 1 38 -3 80 -9 106 -16 120 -5 165 124 18 53 36 97 40 97 3 0 74 -18 156 -40z m-1550 -40 c188 -13 463 -40 500 -49 l29 -7 -84 -73 c-177 -152 -557 -423 -751 -534 l-45 -27 -110 68 c-240 149 -491 328 -683 488 l-94 79 34 6 c46 10 337 38 484 48 175 12 558 12 720 1z"
       id="path1" />
    <path
       d="M2375 4329 c-479 -70 -868 -420 -986 -885 -83 -330 -26 -664 161 -946 417 -629 1297 -719 1829 -187 159 159 262 343 319 569 22 90 26 127 26 260 1 269 -54 456 -202 679 -242 366 -709 574 -1147 510z m310 -160 c42 -7 73 -15 68 -19 -4 -4 -38 -15 -76 -25 l-67 -18 -68 28 c-37 15 -71 32 -76 37 -14 12 130 10 219 -3z m-300 -139 c66 -29 121 -53 123 -55 1 -1 -7 -83 -19 -182 l-22 -181 -183 -131 c-100 -72 -187 -131 -193 -131 -7 0 -73 26 -147 58 l-136 57 6 210 7 210 42 39 c62 57 149 113 240 156 l80 38 41 -18 c23 -10 95 -41 161 -70z m725 -22 c36 -23 107 -83 158 -134 73 -74 92 -99 92 -121 -1 -15 -11 -93 -23 -173 l-23 -145 -49 -17 c-28 -9 -100 -31 -161 -49 l-112 -32 -181 133 c-99 73 -181 137 -181 143 0 16 42 342 44 344 4 4 341 92 356 92 8 1 44 -18 80 -41z m-1522 -645 c-34 -42 -63 -72 -65 -67 -7 21 47 204 83 285 l39 84 3 -113 3 -113 -63 -76z m1931 105 c22 -69 45 -177 39 -183 -2 -2 -23 20 -47 51 -39 50 -42 58 -36 97 9 64 16 97 20 97 2 0 12 -28 24 -62z m-650 -243 c11 -11 3 -45 -54 -215 l-67 -202 -37 6 c-20 3 -115 6 -211 6 l-176 0 -63 200 c-35 111 -62 202 -60 204 2 2 80 58 172 124 l168 121 157 -116 c86 -63 163 -121 171 -128z m-973 29 c71 -30 133 -59 137 -63 4 -5 39 -106 77 -225 l70 -216 -76 -118 c-42 -64 -77 -118 -78 -119 -6 -7 -352 80 -358 90 -31 45 -100 204 -117 267 -42 159 -48 137 84 298 64 78 120 142 124 142 4 0 65 -25 137 -56z m1584 -138 l83 -108 -26 -106 c-17 -70 -45 -143 -79 -212 l-53 -105 -140 -27 c-77 -15 -149 -27 -160 -27 -13 0 -53 39 -113 110 l-93 109 66 202 c36 112 69 209 73 217 5 8 78 36 162 61 l154 47 21 -26 c12 -14 59 -75 105 -135z m-844 -463 l142 -6 88 -104 c49 -58 90 -108 92 -113 2 -4 -30 -67 -70 -139 -84 -151 -72 -143 -248 -163 -98 -11 -280 -1 -309 16 -5 3 -45 67 -91 141 l-82 135 77 120 77 120 91 0 c51 0 156 -3 233 -7z m589 -272 c-27 -25 -147 -111 -156 -111 -5 0 3 22 18 49 25 45 32 50 78 59 70 13 70 13 60 3z m-1277 -16 c65 -16 68 -17 101 -71 18 -30 31 -57 29 -59 -6 -6 -180 108 -197 128 -16 21 -16 21 67 2z"
       id="path2" />
  </g>
</svg>
