<?xml version="1.0" standalone="no"?>
<!DOCTYPE svg PUBLIC "-//W3C//DTD SVG 20010904//EN"
 "http://www.w3.org/TR/2001/REC-SVG-20010904/DTD/svg10.dtd">
<svg version="1.0" xmlns="http://www.w3.org/2000/svg"
 width="474.000000pt" height="474.000000pt" viewBox="0 0 474.000000 474.000000"
 preserveAspectRatio="xMidYMid meet">

<g transform="translate(0.000000,474.000000) scale(0.100000,-0.100000)"
fill="#000000" stroke="none">
<path d="M668 4733 c-1 -5 -29 -21 -61 -37 -74 -37 -149 -119 -176 -191 -28
-74 -28 -175 -1 -256 25 -73 39 -96 104 -173 78 -92 164 -149 401 -268 266
-134 304 -157 377 -237 54 -58 138 -185 138 -208 0 -6 -12 -36 -26 -68 -47
-102 -40 -131 120 -490 146 -331 169 -368 251 -406 55 -26 156 -25 214 1 43
20 69 42 359 304 78 71 145 126 148 123 3 -3 44 -146 91 -319 l85 -313 -16
-150 c-41 -394 -77 -702 -84 -717 -6 -14 -160 -176 -597 -628 -264 -272 -275
-289 -275 -404 1 -113 38 -186 124 -247 22 -16 46 -33 53 -39 14 -12 223 -14
223 -2 0 4 17 16 37 27 47 26 956 972 982 1022 26 53 33 95 77 505 22 197 42
357 46 355 3 -1 115 -107 247 -235 l240 -233 3 -537 3 -537 27 -51 c54 -102
148 -159 264 -158 120 0 217 63 268 173 21 45 21 57 21 676 l0 630 -27 55
c-22 44 -76 102 -275 294 -136 132 -306 296 -377 365 l-128 126 -144 419 c-79
231 -143 420 -141 421 216 157 692 523 711 547 32 42 57 136 49 185 -8 50 -44
122 -80 155 -64 60 -180 85 -264 56 -18 -6 -184 -124 -369 -263 -267 -200
-396 -289 -634 -436 -288 -177 -306 -190 -475 -341 -97 -87 -180 -157 -184
-155 -5 1 -34 60 -65 130 -84 188 -142 239 -278 242 -56 1 -77 6 -100 23 -44
34 -150 161 -179 214 -32 58 -66 177 -95 323 -60 316 -107 445 -205 568 -45
57 -146 132 -192 143 -13 4 -23 10 -23 15 0 11 -187 12 -192 2z"/>
<path d="M2301 4644 c-139 -37 -263 -143 -328 -279 -32 -68 -37 -88 -41 -175
-5 -117 7 -179 55 -273 63 -121 186 -215 328 -252 223 -57 461 57 568 273 41
83 42 89 45 196 3 94 1 121 -18 176 -55 164 -191 292 -357 335 -71 19 -181 18
-252 -1z"/>
</g>
</svg>
