<svg width="96" height="96" xmlns="http://www.w3.org/2000/svg" xmlns:xlink="http://www.w3.org/1999/xlink" xml:space="preserve" overflow="hidden"><g transform="translate(-295 -365)"><path d="M341.83 378C341.83 382.418 338.248 386 333.83 386 329.412 386 325.83 382.418 325.83 378 325.83 373.582 329.412 370 333.83 370 338.248 370 341.83 373.582 341.83 378Z"/><path d="M369.28 390.15C368.093 388.287 365.62 387.738 363.757 388.925 363.755 388.927 363.752 388.928 363.75 388.93L355 394.52 343.91 388.52C342.964 388.005 341.85 387.893 340.82 388.21L327.82 392.21C326.867 392.503 326.057 393.141 325.55 394L319.55 404.29 309.75 401.74C307.592 401.269 305.46 402.637 304.989 404.795 304.543 406.838 305.746 408.88 307.75 409.48L320.48 412.79C320.806 412.877 321.142 412.921 321.48 412.92 322.904 412.915 324.218 412.153 324.93 410.92L329.52 403 330.15 414.44 322.15 434.15C321.782 435.089 321.782 436.131 322.15 437.07L328.32 453.4C328.895 454.941 330.355 455.972 332 456 332.482 456.002 332.96 455.914 333.41 455.74 335.474 454.96 336.517 452.656 335.74 450.59L330.13 435.72 336.62 419.77 337.85 434.83C337.908 435.55 338.16 436.242 338.58 436.83L348.58 450.83C349.867 452.628 352.367 453.042 354.165 451.755 355.963 450.468 356.377 447.968 355.09 446.17L345.73 433.07 344.07 412.71 343.23 397.22 353.23 402.68C354.511 403.379 356.07 403.326 357.3 402.54L368.04 395.67C369.907 394.488 370.462 392.017 369.281 390.151 369.28 390.151 369.28 390.15 369.28 390.15Z"/><path d="M376.58 404 359.9 411.1 362.38 425.18C361.367 425.147 360.367 425.419 359.51 425.96 357.51 427.12 356.51 429.13 357.29 430.45 358.07 431.77 360.29 431.91 362.29 430.78 364.1 429.78 365.08 427.99 364.68 426.7L362.27 413 375.17 407.47 377.29 419.47C376.264 419.449 375.254 419.724 374.38 420.26 372.38 421.42 371.38 423.42 372.16 424.74 372.94 426.06 375.16 426.21 377.16 425.08 378.82 424.08 379.77 422.59 379.64 421.32L379.64 421.32 376.58 404Z"/></g></svg>