<svg width="96" height="96" xmlns="http://www.w3.org/2000/svg" xmlns:xlink="http://www.w3.org/1999/xlink" xml:space="preserve" overflow="hidden"><g transform="translate(-563 -197)"><path d="M641 215C632 206 615.4 208.1 605.6 217.8 599.5 224 597 232.2 598.1 239.7 598.1 239.7 599 254.2 596.4 256.8L592.2 261 591.5 260.3 575.9 274.4C575.1 275.2 575.1 276.4 575.9 277.2L578.7 280C579.5 280.8 580.7 280.8 581.5 280L595.6 264.4 595 263.8 599.2 259.6C601.8 257 616.3 257.9 616.3 257.9 623.8 259 632 256.5 638.1 250.4 647.9 240.6 649.9 224 641 215ZM621.9 235.5 624.7 238.3 621.9 241.1 619 238.4 621.9 235.5ZM617.6 237 614.8 234.2 617.6 231.4 620.4 234.2 617.6 237ZM623.3 234.1 626.1 231.3 628.9 234.1 626.1 237 623.3 234.1ZM627.5 229.9 630.3 227.1 633.1 229.9 630.3 232.7 627.5 229.9ZM631.8 225.6 634.6 222.8 637.4 225.6 634.6 228.4 631.8 225.6ZM630.4 224.2 627.6 221.4 630.4 218.6 633.2 221.4 630.4 224.2ZM628.9 225.6 626.1 228.4 623.3 225.6 626.1 222.8 628.9 225.6ZM624.7 229.9 621.9 232.7 619 229.9 621.8 227.1 624.7 229.9ZM617.6 228.5 614.8 225.7 617.6 222.9 620.4 225.7 617.6 228.5ZM616.2 229.9 613.4 232.7 610.6 229.9 613.4 227.1 616.2 229.9ZM612 234.1 609.1 237 606.3 234.2 609.1 231.4 612 234.1ZM613.4 235.5 616.2 238.3 613.4 241.1 610.6 238.3 613.4 235.5ZM617.6 239.8 620.4 242.6 617.6 245.4 614.8 242.6 617.6 239.8ZM621.9 244 624.7 246.8 621.9 249.6 619 246.9 621.9 244ZM623.3 242.6 626.1 239.8 628.9 242.6 626.1 245.4 623.3 242.6ZM627.5 238.4 630.3 235.6 633.1 238.4 630.3 241.2 627.5 238.4ZM631.8 234.1 634.6 231.3 637.4 234.1 634.6 237 631.8 234.1ZM636 229.9 638.8 227.1 641.6 229.9 638.8 232.7 636 229.9ZM640.3 225.6 641.9 224C642.3 225.3 642.6 226.6 642.7 227.9L640.3 225.6ZM638.8 224.2 636 221.4 638.8 218.6C639.7 219.6 640.4 220.8 641 222L638.8 224.2ZM634.6 220 631.8 217.2 634 215C635.2 215.6 636.4 216.3 637.4 217.2L634.6 220ZM630.4 215.7 628 213.4C629.4 213.5 630.7 213.8 631.9 214.2L630.4 215.7ZM628.9 217.2 626.1 220 623.3 217.2 626.1 214.4 628.9 217.2ZM624.7 221.4 621.9 224.2 619 221.4 621.8 218.6 624.7 221.4ZM617.6 220 614.1 216.5C615.4 215.8 616.7 215.2 618 214.8L620.4 217.2 617.6 220ZM616.2 221.4 613.4 224.2 609.2 220C610.2 219.1 611.3 218.3 612.4 217.5L616.2 221.4ZM612 225.6 609.2 228.4 605.4 224.6C606.1 223.5 606.9 222.4 607.9 221.4L612 225.6ZM607.7 229.9 604.9 232.7 602.7 230.5C603.1 229.1 603.6 227.8 604.3 226.4L607.7 229.9ZM603.5 234.1 601.9 235.7C601.9 234.7 602 233.7 602.2 232.8L603.5 234.1ZM604.9 235.5 607.7 238.3 603.1 243C602.5 241.5 602.2 240 602 238.5L604.9 235.5ZM609.1 239.8 611.9 242.6 606.3 248.2C605.4 247.2 604.6 246.1 604 244.9L609.1 239.8ZM607.8 249.6 613.4 244 616.2 246.8 611.1 252C609.9 251.3 608.8 250.6 607.8 249.6ZM617.6 248.3 620.4 251.1 617.6 254C616 253.8 614.5 253.4 613.1 252.9L617.6 248.3ZM621.9 252.5 623.2 253.8C622.2 254 621.2 254 620.3 254.1L621.9 252.5ZM623.3 251.1 626.1 248.3 629.6 251.8C628.3 252.5 626.9 253 625.5 253.4L623.3 251.1ZM627.5 246.9 630.3 244.1 634.5 248.3C633.5 249.2 632.4 250 631.3 250.8L627.5 246.9ZM631.8 242.6 634.6 239.8 638.5 243.7C637.8 244.8 636.9 245.9 636 246.9L631.8 242.6ZM636 238.4 638.8 235.6 641.2 238C640.7 239.3 640.1 240.6 639.5 241.9L636 238.4ZM641.9 235.8 640.2 234.1 642.6 231.7C642.5 233.1 642.3 234.5 641.9 235.8ZM624.2 213.4 621.8 215.8 620.1 214.1C621.5 213.7 622.9 213.5 624.2 213.4Z"/><path d="M643.4 266.2C641.9 267.3 641 269 641 271 641 273 641.9 274.7 643.4 275.8 644.4 274.5 645 272.8 645 271 645 269.2 644.4 267.5 643.4 266.2Z"/><path d="M630.6 266.2C629.6 267.5 629 269.2 629 271 629 272.8 629.6 274.5 630.6 275.8 632.1 274.7 633 273 633 271 633 269 632.1 267.3 630.6 266.2Z"/><path d="M639 271C639 268.5 640.2 266.2 642 264.8 640.6 263.7 638.9 263 637 263 635.1 263 633.4 263.7 632 264.8 633.8 266.3 635 268.5 635 271 635 273.5 633.8 275.8 632 277.2 633.4 278.3 635.1 279 637 279 638.9 279 640.6 278.3 642 277.2 640.2 275.8 639 273.5 639 271Z"/></g></svg>