<?xml version="1.0" standalone="no"?>
<!DOCTYPE svg PUBLIC "-//W3C//DTD SVG 20010904//EN"
 "http://www.w3.org/TR/2001/REC-SVG-20010904/DTD/svg10.dtd">
<svg version="1.0" xmlns="http://www.w3.org/2000/svg"
 width="512.000000pt" height="512.000000pt" viewBox="0 0 512.000000 512.000000"
 preserveAspectRatio="xMidYMid meet">

<g transform="translate(0.000000,512.000000) scale(0.100000,-0.100000)"
fill="#000000" stroke="none">
<path d="M1184 5104 c-50 -24 -67 -66 -74 -177 l-5 -99 -46 -17 c-238 -91
-379 -359 -314 -600 36 -135 134 -262 249 -322 l64 -33 6 -176 c4 -96 10 -239
15 -317 10 -169 -16 -122 255 -475 l196 -257 0 -750 0 -750 24 -54 c45 -102
134 -166 241 -174 42 -3 190 15 495 61 239 36 435 64 436 63 0 -1 126 -207
279 -457 153 -250 292 -470 309 -488 51 -56 101 -76 181 -76 83 0 132 21 188
83 68 76 82 182 35 274 -49 98 -654 1075 -687 1111 -49 52 -103 76 -174 76
-32 0 -240 -27 -464 -60 -223 -34 -407 -59 -409 -57 -2 2 136 53 308 112 172
59 321 112 331 117 16 8 17 42 17 492 l0 484 201 263 c111 144 211 278 222
297 18 31 21 60 29 296 5 143 11 285 14 314 5 50 7 54 47 72 52 25 129 87 169
138 133 166 145 410 30 588 -63 97 -174 182 -284 218 -16 5 -18 19 -18 103 0
80 -4 104 -20 130 -37 61 -108 79 -167 43 -50 -30 -63 -66 -63 -174 l0 -94
-48 -16 c-26 -9 -75 -34 -109 -57 -176 -114 -265 -327 -222 -531 27 -132 134
-277 245 -334 l55 -29 -5 -145 c-4 -80 -9 -196 -12 -258 l-6 -112 -156 -205
-157 -205 -302 0 -302 0 -159 208 -160 208 -7 255 -7 254 54 32 c68 40 158
134 192 201 137 270 16 595 -264 708 l-55 23 -5 103 c-7 116 -20 146 -75 172
-41 20 -71 20 -111 0z m162 -533 c85 -38 144 -123 152 -217 5 -60 -19 -142
-48 -169 -19 -18 -20 -17 -20 9 0 43 -37 104 -81 133 -114 75 -274 11 -296
-120 -7 -47 -22 -37 -53 35 -51 120 11 273 135 329 54 25 156 25 211 0z m1692
-7 c127 -63 180 -231 111 -354 l-23 -41 -17 51 c-38 117 -155 171 -264 121
-54 -25 -84 -60 -105 -123 l-17 -52 -18 27 c-44 68 -54 134 -31 211 20 65 51
108 105 144 54 36 66 39 147 41 46 1 72 -5 112 -25z"/>
<path d="M2015 3940 c-176 -28 -319 -153 -370 -323 -22 -73 -19 -201 4 -270
83 -240 335 -367 574 -290 213 68 346 287 309 506 -42 244 -275 414 -517 377z"/>
<path d="M3175 1829 c-44 -8 -109 -36 -175 -73 l-42 -24 53 -17 c87 -29 135
-88 319 -389 l165 -269 245 -186 c282 -214 317 -234 398 -234 78 1 134 26 185
83 80 89 90 210 25 307 -24 36 -958 748 -1025 782 -47 23 -96 30 -148 20z"/>
</g>
</svg>
