<?xml version="1.0" standalone="no"?>
<!DOCTYPE svg PUBLIC "-//W3C//DTD SVG 20010904//EN"
 "http://www.w3.org/TR/2001/REC-SVG-20010904/DTD/svg10.dtd">
<svg version="1.0" xmlns="http://www.w3.org/2000/svg"
 width="321.000000pt" height="252.000000pt" viewBox="0 0 321.000000 252.000000"
 preserveAspectRatio="xMidYMid meet">

<g transform="translate(0.000000,252.000000) scale(0.100000,-0.100000)"
fill="#000000" stroke="none">
<path d="M1508 1978 c-179 -126 -187 -133 -174 -152 8 -12 20 -21 28 -20 7 1
82 49 166 108 84 59 159 109 166 112 7 3 88 -47 180 -110 91 -64 169 -116 172
-116 8 0 33 32 34 42 0 7 -373 269 -381 267 -2 0 -88 -59 -191 -131z"/>
<path d="M1533 1888 c-89 -62 -162 -119 -163 -125 0 -10 72 -13 330 -13 268 0
330 3 330 13 0 12 -287 219 -322 232 -7 3 -86 -45 -175 -107z m212 17 c27 -26
31 -46 14 -76 -25 -48 -99 -42 -117 10 -25 70 51 119 103 66z"/>
<path d="M621 1811 c-6 -10 -28 -69 -50 -130 l-40 -111 380 0 379 0 0 89 0 90
30 3 30 3 -25 38 -26 37 -334 0 c-318 0 -335 -1 -344 -19z"/>
<path d="M2081 1796 c-27 -43 -27 -46 9 -46 l30 0 0 -90 0 -90 375 0 c206 0
375 2 375 4 0 2 -21 61 -46 130 l-46 126 -338 0 -338 0 -21 -34z"/>
<path d="M1317 1723 c-4 -3 -7 -39 -7 -80 l0 -73 390 0 390 0 0 80 0 80 -383
0 c-211 0 -387 -3 -390 -7z"/>
<path d="M480 1510 l0 -30 435 0 435 0 0 30 0 30 -435 0 -435 0 0 -30z"/>
<path d="M1372 1003 l3 -538 35 -3 c19 -2 54 -1 77 3 l43 6 2 327 3 327 167 3
168 2 2 -332 3 -333 35 -3 c19 -2 54 -1 77 3 l43 6 0 535 0 534 -330 0 -330 0
2 -537z m468 487 c0 -19 -7 -20 -140 -20 -133 0 -140 1 -140 20 0 19 7 20 140
20 133 0 140 -1 140 -20z m-20 -165 l0 -125 -120 0 -120 0 0 125 0 125 120 0
120 0 0 -125z"/>
<path d="M1610 1320 l0 -90 95 0 96 0 -3 88 -3 87 -92 3 -93 3 0 -91z"/>
<path d="M2060 1510 l0 -30 430 0 430 0 0 30 0 30 -430 0 -430 0 0 -30z"/>
<path d="M532 958 l3 -493 385 -3 c212 -1 395 0 408 3 l22 5 0 490 0 490 -410
0 -410 0 2 -492z m368 372 c0 -19 -7 -20 -140 -20 -133 0 -140 1 -140 20 0 19
7 20 140 20 133 0 140 -1 140 -20z m368 3 c-3 -16 -18 -18 -143 -18 -125 0
-140 2 -143 18 -3 16 9 17 143 17 134 0 146 -1 143 -17z m-388 -168 l0 -125
-120 0 -120 0 0 125 0 125 120 0 120 0 0 -125z m368 -2 l3 -123 -126 0 -125 0
0 118 c0 65 3 122 7 126 4 3 59 5 122 4 l116 -3 3 -122z m-348 -223 c0 -19 -7
-20 -140 -20 -133 0 -140 1 -140 20 0 19 7 20 140 20 133 0 140 -1 140 -20z
m368 3 c-3 -16 -18 -18 -143 -18 -125 0 -140 2 -143 18 -3 16 9 17 143 17 134
0 146 -1 143 -17z m-388 -168 l0 -125 -120 0 -120 0 0 125 0 125 120 0 120 0
0 -125z m368 -2 l3 -123 -126 0 -125 0 0 118 c0 65 3 122 7 126 4 3 59 5 122
4 l116 -3 3 -122z"/>
<path d="M670 1160 l0 -90 89 0 90 0 3 86 c2 47 1 88 -1 90 -2 2 -44 4 -93 4
l-88 0 0 -90z"/>
<path d="M1030 1160 l0 -90 95 0 95 0 0 90 0 90 -95 0 -95 0 0 -90z"/>
<path d="M670 770 l0 -90 89 0 90 0 3 86 c2 47 1 88 -1 90 -2 2 -44 4 -93 4
l-88 0 0 -90z"/>
<path d="M1030 770 l0 -90 95 0 95 0 0 90 0 90 -95 0 -95 0 0 -90z"/>
<path d="M2060 961 l0 -488 41 -7 c49 -8 734 -7 754 1 13 4 15 76 15 494 l0
489 -405 0 -405 0 0 -489z m360 369 c0 -19 -7 -20 -140 -20 -133 0 -140 1
-140 20 0 19 7 20 140 20 133 0 140 -1 140 -20z m360 0 c0 -19 -7 -20 -140
-20 -133 0 -140 1 -140 20 0 19 7 20 140 20 133 0 140 -1 140 -20z m-382 -167
l3 -123 -121 0 -120 0 0 125 0 126 118 -3 117 -3 3 -122z m365 113 c3 -7 5
-64 6 -125 l0 -111 -125 0 -124 0 0 118 c0 65 3 122 7 125 3 4 57 7 119 7 85
0 113 -3 117 -14z m-343 -336 c0 -19 -7 -20 -140 -20 -133 0 -140 1 -140 20 0
19 7 20 140 20 133 0 140 -1 140 -20z m360 0 c0 -19 -7 -20 -140 -20 -133 0
-140 1 -140 20 0 19 7 20 140 20 133 0 140 -1 140 -20z m-382 -167 l3 -123
-121 0 -120 0 0 125 0 126 118 -3 117 -3 3 -122z m366 110 c3 -10 5 -66 5
-125 l-1 -108 -124 0 -124 0 0 118 c0 65 3 122 7 125 3 4 57 7 119 7 99 0 113
-2 118 -17z"/>
<path d="M2187 1243 c-4 -3 -7 -44 -7 -90 l0 -83 95 0 95 0 0 90 0 90 -88 0
c-49 0 -92 -3 -95 -7z"/>
<path d="M2550 1160 l0 -90 95 0 95 0 0 90 0 90 -95 0 -95 0 0 -90z"/>
<path d="M2180 770 l0 -90 95 0 95 0 0 90 0 90 -95 0 -95 0 0 -90z"/>
<path d="M2550 770 l0 -90 95 0 95 0 0 90 0 90 -95 0 -95 0 0 -90z"/>
<path d="M1687 1053 c-4 -3 -7 -120 -7 -260 0 -246 1 -253 20 -253 19 0 20 7
20 260 0 210 -3 260 -13 260 -8 0 -17 -3 -20 -7z"/>
<path d="M480 405 l0 -35 1220 0 1220 0 0 35 0 35 -1220 0 -1220 0 0 -35z"/>
</g>
</svg>
