<svg width="96" height="96" xmlns="http://www.w3.org/2000/svg" xmlns:xlink="http://www.w3.org/1999/xlink" xml:space="preserve" overflow="hidden"><g transform="translate(-363 -265)"><path d="M377.4 294.8C375.3 298.7 373.9 303.1 373.3 307.7 379.2 323.9 393 335 398.7 339 400.9 336 402.7 332.9 404 330.1 399.2 326.5 383.8 313.9 377.4 294.8Z"/><path d="M429.1 310.4C428.5 316.2 425.3 336.2 411.7 351.5 416.3 351.4 420.7 350.5 424.7 348.9 436.3 335.5 438.9 317.4 439.5 310.6 435.8 310.1 432.3 310.1 429.1 310.4Z"/><path d="M412.8 314.3C412.4 318.8 410 334.4 396 348.4 399.3 349.8 402.8 350.8 406.4 351.2 420.4 337.5 424.1 317.6 425 310.9 419 311.8 414.6 313.5 412.8 314.3Z"/><path d="M394.5 289.4C394.6 289.6 394.7 289.9 394.8 290.1 396.3 293.3 397.9 296.1 399.6 298.5 405.1 296.1 423.7 289.1 443.4 293 441.1 289.2 438.2 285.8 434.8 283.1 417.6 279.9 400.8 286.5 394.5 289.4Z"/><path d="M445.8 297.7C427.2 292.8 408.5 299.2 402.1 301.8 406 306.7 409.7 309.5 411.2 310.6 415.4 308.7 429.9 303.3 448.6 308.1 448.1 304.5 447.2 301 445.8 297.7Z"/><path d="M396.2 342.2C391 338.5 380.2 329.9 373.1 317 374.4 329.7 381.8 340.5 392.2 346.5 393.7 345.1 395 343.6 396.2 342.2Z"/><path d="M443.5 311.1C443 317.4 440.9 331.5 433.1 344.3 442.7 337.3 448.9 325.9 448.9 313 448.9 312.8 448.9 312.6 448.9 312.3 447 311.8 445.3 311.4 443.5 311.1Z"/><path d="M393 285.7C398.8 283 412.1 277.7 427.2 278.2 422.3 275.8 416.7 274.5 410.9 274.5 403.7 274.5 397 276.5 391.3 280 391.8 282 392.4 283.9 393 285.7Z"/><path d="M405.7 326.3C407.9 320.6 408.6 316 408.8 314 405.7 311.8 397 304.7 391.1 291.8 389.8 289 388.6 285.9 387.7 282.5 384.8 284.7 382.3 287.3 380.2 290.3 385.2 309 400.2 322.1 405.7 326.3Z"/></g></svg>