<svg width="96" height="96" xmlns="http://www.w3.org/2000/svg" xmlns:xlink="http://www.w3.org/1999/xlink" xml:space="preserve" overflow="hidden"><g transform="translate(-659 -332)"><path d="M720 345C720 349.418 716.418 353 712 353 707.582 353 704 349.418 704 345 704 340.582 707.582 337 712 337 716.418 337 720 340.582 720 345Z"/><path d="M710.7 386.7 713.4 373.2 715.3 377.6C715.8 378.6 716.6 379.4 717.7 379.8L726 382.6 718.3 392.3 710.7 386.7ZM732.3 376.2 722 372.8C722 372.8 716.3 359.6 716.1 359.2 714.7 356.6 712 355 709.1 355 707.9 355 706.8 355.3 705.7 355.8 703.5 356.7 701.9 358.5 701.5 360.8L699.3 371.4 693.4 400.2 679.9 416.5C678.5 418.2 678.7 420.7 680.4 422.1 681.1 422.7 682 423 682.9 423 684.1 423 685.2 422.5 686 421.5L700 404.5C700.4 404 700.7 403.4 700.8 402.8L703.2 391.2 713.3 398.5 696.4 419.8C695.9 420.4 695.8 421.1 696.1 421.8 696.4 422.5 697 423 697.7 423.1 698.4 423.2 699.1 422.9 699.6 422.3L714 404.1 714 418.9C714 421 715.5 422.8 717.6 423.1 718.7 423.2 719.9 422.8 720.7 422.1 721.5 421.3 722 420.3 722 419.1L722 397C722 396.2 721.8 395.5 721.3 394.8L730 383.9C730.3 384 730.7 384 731 384 732.7 384 734.2 382.9 734.8 381.3 735.1 380.3 735.1 379.2 734.6 378.2 734.1 377.3 733.3 376.5 732.3 376.2Z"/><path d="M690.3 351.6C690.5 350.5 691.6 349.8 692.6 350 693.7 350.2 694.4 351.3 694.2 352.3 694 353.4 692.9 354.1 691.9 353.9 690.8 353.7 690.1 352.6 690.3 351.6ZM699.1 353.2C699.7 350.1 698.1 346.9 695.2 345.6 692.3 344.3 688.9 345 686.8 347.4 684.7 349.8 684.6 353.3 686.4 355.9 685.4 355.7 684.4 356.4 684.2 357.5L680.5 375.9C680 378 680.5 380.1 681.9 381.8 683.2 383.5 685.2 384.4 687.3 384.4 690.7 384.3 693.5 381.8 694.1 378.5L697.8 360.1C697.9 359.6 697.8 359.1 697.5 358.6 697.2 358.2 696.8 357.9 696.3 357.7L696.1 357.7C697.7 356.8 698.8 355.1 699.1 353.2Z"/></g></svg>